<?xml version="1.0" encoding="UTF-8" standalone="no"?>
<!-- Created with Inkscape (http://www.inkscape.org/) -->

<svg
   width="52.48439mm"
   height="65.43148mm"
   viewBox="0 0 52.48439 65.43148"
   version="1.1"
   id="svg455"
   xml:space="preserve"
   inkscape:version="1.2.1 (9c6d41e410, 2022-07-14)"
   sodipodi:docname="karstlinkapps-invited.svg"
   inkscape:export-filename="..\..\Desktop\karstlinkapps-invited.png"
   inkscape:export-xdpi="96"
   inkscape:export-ydpi="96"
   xmlns:inkscape="http://www.inkscape.org/namespaces/inkscape"
   xmlns:sodipodi="http://sodipodi.sourceforge.net/DTD/sodipodi-0.dtd"
   xmlns:xlink="http://www.w3.org/1999/xlink"
   xmlns="http://www.w3.org/2000/svg"
   xmlns:svg="http://www.w3.org/2000/svg"><sodipodi:namedview
     id="namedview457"
     pagecolor="#ffffff"
     bordercolor="#000000"
     borderopacity="0.25"
     inkscape:showpageshadow="2"
     inkscape:pageopacity="0.0"
     inkscape:pagecheckerboard="0"
     inkscape:deskcolor="#d1d1d1"
     inkscape:document-units="mm"
     showgrid="false"
     inkscape:zoom="0.73851712"
     inkscape:cx="-104.94002"
     inkscape:cy="391.32472"
     inkscape:window-width="1920"
     inkscape:window-height="1009"
     inkscape:window-x="-8"
     inkscape:window-y="-8"
     inkscape:window-maximized="1"
     inkscape:current-layer="layer1" /><defs
     id="defs452"><radialGradient
       id="radialGradient8011"
       xlink:href="#linearGradient7989"
       gradientUnits="userSpaceOnUse"
       cy="545.89001"
       cx="943.34998"
       gradientTransform="matrix(0.26458333,0,0,0.3297502,-144.59362,-102.27525)"
       r="99.18"
       inkscape:collect="always" /><linearGradient
       id="linearGradient7989"><stop
         id="stop7991"
         style="stop-color:#344083"
         offset="0" /><stop
         id="stop7993"
         style="stop-color:#182638"
         offset="1" /></linearGradient></defs><g
     inkscape:label="Calque 1"
     inkscape:groupmode="layer"
     id="layer1"
     transform="translate(-78.757808,-45.027322)"><path
       id="path7459"
       d="m 104.96932,45.261703 c 0,0 15.64719,0 25.976,10.390452 0,18.183225 2.59762,41.560749 -25.94531,54.549145 C 76.45676,97.213169 79.054704,73.834321 79.054704,55.652155 89.445156,45.261703 105.0307,45.261703 105.0307,45.261703"
       sodipodi:nodetypes="ccccc"
       style="fill:url(#radialGradient8011);stroke:#000000;stroke-width:0.468762"
       inkscape:connector-curvature="0" /><path
       style="fill:#ffffff;stroke-width:0.264583"
       d="M 91.770831,63.445451 V 50.480871 H 105 118.22917 v 12.96458 12.96459 H 105 91.770831 Z m 10.523909,6.81302 0.0729,-4.16718 h -1.85066 -1.85066 l -0.07429,3.24114 c -0.06124,2.67161 -0.144029,3.24115 -0.471165,3.24115 -0.327136,0 -0.409929,-0.56954 -0.471164,-3.24115 l -0.07429,-3.24114 h -1.84394 -1.843939 v 4.24005 4.24005 l 4.167187,-0.0729 4.167191,-0.0729 z m 4.29276,-0.0788 v -4.37825 l -1.65365,0.0788 -1.65364,0.0788 -0.0735,3.95712 c -0.0404,2.17642 -0.0144,4.11119 0.0578,4.29948 0.0874,0.22772 0.66571,0.34235 1.72717,0.34235 h 1.59581 z m 9.34158,2.1293 c -0.0265,-1.16417 -0.0556,-2.38456 -0.0647,-2.71198 -0.0159,-0.57204 -0.1096,-0.59532 -2.39776,-0.59532 -2.20486,0 -2.38125,-0.0392 -2.38125,-0.52916 0,-0.49149 0.17639,-0.52917 2.47741,-0.52917 2.41128,0 2.47575,-0.0159 2.41502,-0.59531 -0.0343,-0.32742 -0.0776,-0.74414 -0.0962,-0.92604 -0.0254,-0.24891 -1.04837,-0.33073 -4.1348,-0.33073 h -4.10105 v 2.77812 2.77813 h 2.53295 c 2.26967,0 2.52373,0.0481 2.44437,0.46302 -0.0754,0.39435 -0.45109,0.4743 -2.53294,0.53909 l -2.44438,0.0761 v 0.92283 0.92283 l 4.16569,-0.0729 4.16569,-0.0729 z m -9.54002,-7.85752 c 0.57563,-0.66571 0.58639,-1.24132 0.0378,-2.02449 -1.3112,-1.87199 -3.99618,-0.3692 -3.05013,1.70716 0.55357,1.21496 2.09568,1.37741 3.0123,0.31733 z m -3.89656,-5.83467 -0.006,-6.41615 -4.299476,-0.0727 -4.299479,-0.0727 v 6.48885 6.48884 h 4.305526 4.305529 z m 13.62,-0.0661 v -6.48229 h -4.23333 -4.23334 v 6.48229 6.48229 h 4.23334 4.23333 z"
       id="path673" /><text
       xml:space="preserve"
       style="font-size:7.05556px;line-height:0;font-family:Alef;-inkscape-font-specification:Alef;text-align:center;text-anchor:middle;fill:#ffffff;stroke-width:1.365"
       x="104.89664"
       y="86.016022"
       id="text729"><tspan
         sodipodi:role="line"
         id="tspan727"
         style="stroke-width:1.365"
         x="104.89664"
         y="86.016022">KARSTLINK</tspan></text><text
       xml:space="preserve"
       style="font-size:7.05556px;line-height:0;font-family:Alef;-inkscape-font-specification:Alef;text-align:center;text-anchor:middle;fill:#ffffff;stroke-width:1.365"
       x="104.98966"
       y="97.447525"
       id="text783"><tspan
         sodipodi:role="line"
         id="tspan781"
         style="stroke-width:1.365"
         x="104.98966"
         y="97.447525">invited</tspan></text></g></svg>
