<?xml version="1.0" encoding="UTF-8" standalone="no"?>
<svg xmlns:dc="http://purl.org/dc/elements/1.1/" xmlns:cc="http://creativecommons.org/ns#" xmlns:rdf="http://www.w3.org/1999/02/22-rdf-syntax-ns#" xmlns:svg="http://www.w3.org/2000/svg" xmlns="http://www.w3.org/2000/svg" xmlns:sodipodi="http://sodipodi.sourceforge.net/DTD/sodipodi-0.dtd" xmlns:inkscape="http://www.inkscape.org/namespaces/inkscape" width="73.822281mm" height="125.87939mm" viewBox="0 0 73.822281 125.87939" version="1.1" id="svg371" inkscape:version="1.0.1 (1.0.1+r75)" sodipodi:docname="marker.svg">
  <defs id="defs365">
    <filter inkscape:collect="always" style="color-interpolation-filters:sRGB" id="filter1666" x="-0.32560244" width="1.6512049" y="-0.32560244" height="1.6512049">
      <feGaussianBlur inkscape:collect="always" stdDeviation="2.0924629" id="feGaussianBlur1668"/>
    </filter>
    <filter inkscape:collect="always" style="color-interpolation-filters:sRGB" id="filter1670" x="-0.11471193" width="1.2294239" y="-0.071061052" height="1.1421221">
      <feGaussianBlur inkscape:collect="always" stdDeviation="7.202948" id="feGaussianBlur1672"/>
    </filter>
  </defs>
  <sodipodi:namedview id="base" pagecolor="#ffffff" bordercolor="#666666" borderopacity="1.0" inkscape:pageopacity="1" inkscape:pageshadow="2" inkscape:zoom="0.98994949" inkscape:cx="270.6208" inkscape:cy="210.1755" inkscape:document-units="mm" inkscape:current-layer="layer1" inkscape:document-rotation="0" showgrid="false" fit-margin-top="10" lock-margins="true" fit-margin-left="10" fit-margin-right="10" fit-margin-bottom="10" inkscape:window-width="1303" inkscape:window-height="713" inkscape:window-x="63" inkscape:window-y="27" inkscape:window-maximized="1"/>
  <metadata id="metadata368">
    <rdf:RDF>
      <cc:Work rdf:about="">
        <dc:format>image/svg+xml</dc:format>
        <dc:type rdf:resource="http://purl.org/dc/dcmitype/StillImage"/>
        <dc:title/>
      </cc:Work>
    </rdf:RDF>
  </metadata>
  <g inkscape:label="Capa 1" inkscape:groupmode="layer" id="layer1" transform="translate(-72.235666,6.4543964)">
    <g id="g399" transform="matrix(0.29050091,0,0,0.29050091,-66.97849,10.2657)" style="fill:#000000;fill-opacity:1;filter:url(#filter1670)">
      <path style="fill:#000000;fill-opacity:1;stroke:none;stroke-width:0;stroke-linecap:round;stroke-linejoin:round" d="m 594.31329,225.0304 c -33.46577,-48.83668 -52.35795,-87.04342 -60.54507,-122.44383 -2.69747,-11.663476 -3.75048,-37.159545 -1.92328,-46.566339 5.40416,-27.821585 26.51895,-50.8166934 54.67658,-59.5457029 6.20147,-1.9224852 9.80789,-2.3463725 19.73024,-2.3190279 12.52872,0.034526 16.50311,0.7791131 27.82467,5.21286495 16.66128,6.52489455 31.37505,20.37600485 39.44752,37.13474185 6.23319,12.940351 8.10738,21.44228 8.10738,36.777795 0,25.025234 -6.75417,49.656538 -22.67554,82.693718 -10.86588,22.54699 -28.9098,52.83755 -43.84841,73.6089 -5.07064,7.05043 -5.97555,7.8415 -8.97007,7.8415 -3.12263,0 -3.86058,-0.77354 -11.82402,-12.39462 z m 20.34613,-19.35492 c 32.29498,-49.6525 48.73245,-87.47573 52.81931,-121.5391 2.24258,-18.691534 -1.02884,-34.529635 -9.95432,-48.192863 C 646.4763,19.031017 629.95394,9.288544 610.21295,8.0461303 592.08833,6.9054412 576.19608,12.851276 563.77082,25.421704 547.86407,41.514302 542.2395,59.281277 545.03218,84.613608 c 3.50797,31.821142 18.1151,66.440332 47.82699,113.350972 10.05481,15.87507 12.74548,19.43101 14.07913,18.60677 0.5833,-0.36051 4.05781,-5.26364 7.72112,-10.89587 z" id="path397"/>
    </g>
    <circle style="opacity:1;fill:#000000;fill-opacity:1;stroke:none;stroke-width:0;stroke-linecap:round;stroke-linejoin:round;filter:url(#filter1666)" id="circle401" cx="109.52897" cy="96.691368" r="7.7117219"/>
    <g id="g393" transform="matrix(0.29050091,0,0,0.29050091,-66.97849,10.2657)" style="fill:#000000;fill-opacity:1">
      <path style="fill:#000000;fill-opacity:1;stroke:none;stroke-width:0;stroke-linecap:round;stroke-linejoin:round" d="m 594.31329,225.0304 c -33.46577,-48.83668 -52.35795,-87.04342 -60.54507,-122.44383 -2.69747,-11.663476 -3.75048,-37.159545 -1.92328,-46.566339 5.40416,-27.821585 26.51895,-50.8166934 54.67658,-59.5457029 6.20147,-1.9224852 9.80789,-2.3463725 19.73024,-2.3190279 12.52872,0.034526 16.50311,0.7791131 27.82467,5.21286495 16.66128,6.52489455 31.37505,20.37600485 39.44752,37.13474185 6.23319,12.940351 8.10738,21.44228 8.10738,36.777795 0,25.025234 -6.75417,49.656538 -22.67554,82.693718 -10.86588,22.54699 -28.9098,52.83755 -43.84841,73.6089 -5.07064,7.05043 -5.97555,7.8415 -8.97007,7.8415 -3.12263,0 -3.86058,-0.77354 -11.82402,-12.39462 z m 20.34613,-19.35492 c 32.29498,-49.6525 48.73245,-87.47573 52.81931,-121.5391 2.24258,-18.691534 -1.02884,-34.529635 -9.95432,-48.192863 C 646.4763,19.031017 629.95394,9.288544 610.21295,8.0461303 592.08833,6.9054412 576.19608,12.851276 563.77082,25.421704 547.86407,41.514302 542.2395,59.281277 545.03218,84.613608 c 3.50797,31.821142 18.1151,66.440332 47.82699,113.350972 10.05481,15.87507 12.74548,19.43101 14.07913,18.60677 0.5833,-0.36051 4.05781,-5.26364 7.72112,-10.89587 z" id="path391"/>
    </g>
    <circle style="opacity:1;fill:#000000;fill-opacity:1;stroke:none;stroke-width:0;stroke-linecap:round;stroke-linejoin:round" id="circle395" cx="109.52898" cy="96.691368" r="7.7117219"/>
    <g id="g3166" transform="matrix(0.29050091,0,0,0.29050091,-68.036824,9.7365337)" style="fill:#bb1233;fill-opacity:1">
      <path style="fill:#bb1233;fill-opacity:1;stroke:none;stroke-width:0;stroke-linecap:round;stroke-linejoin:round" d="m 594.31329,225.0304 c -33.46577,-48.83668 -52.35795,-87.04342 -60.54507,-122.44383 -2.69747,-11.663476 -3.75048,-37.159545 -1.92328,-46.566339 5.40416,-27.821585 26.51895,-50.8166934 54.67658,-59.5457029 6.20147,-1.9224852 9.80789,-2.3463725 19.73024,-2.3190279 12.52872,0.034526 16.50311,0.7791131 27.82467,5.21286495 16.66128,6.52489455 31.37505,20.37600485 39.44752,37.13474185 6.23319,12.940351 8.10738,21.44228 8.10738,36.777795 0,25.025234 -6.75417,49.656538 -22.67554,82.693718 -10.86588,22.54699 -28.9098,52.83755 -43.84841,73.6089 -5.07064,7.05043 -5.97555,7.8415 -8.97007,7.8415 -3.12263,0 -3.86058,-0.77354 -11.82402,-12.39462 z m 20.34613,-19.35492 c 32.29498,-49.6525 48.73245,-87.47573 52.81931,-121.5391 2.24258,-18.691534 -1.02884,-34.529635 -9.95432,-48.192863 C 646.4763,19.031017 629.95394,9.288544 610.21295,8.0461303 592.08833,6.9054412 576.19608,12.851276 563.77082,25.421704 547.86407,41.514302 542.2395,59.281277 545.03218,84.613608 c 3.50797,31.821142 18.1151,66.440332 47.82699,113.350972 10.05481,15.87507 12.74548,19.43101 14.07913,18.60677 0.5833,-0.36051 4.05781,-5.26364 7.72112,-10.89587 z" id="path3162"/>
    </g>
    <circle style="opacity:1;fill:#bb1233;fill-opacity:1;stroke:none;stroke-width:0;stroke-linecap:round;stroke-linejoin:round" id="path3682" cx="108.47066" cy="96.162201" r="7.7117219"/>
  </g>
</svg>