<?xml version="1.0" encoding="UTF-8" standalone="no"?>
<!-- Created with Inkscape (http://www.inkscape.org/) -->

<svg
   width="100"
   height="100"
   viewBox="0 0 26.458333 26.458333"
   version="1.1"
   id="svg969"
   inkscape:version="1.2.1 (9c6d41e410, 2022-07-14)"
   sodipodi:docname="avoid_touching_microbial_mats.svg"
   xml:space="preserve"
   xmlns:inkscape="http://www.inkscape.org/namespaces/inkscape"
   xmlns:sodipodi="http://sodipodi.sourceforge.net/DTD/sodipodi-0.dtd"
   xmlns:xlink="http://www.w3.org/1999/xlink"
   xmlns="http://www.w3.org/2000/svg"
   xmlns:svg="http://www.w3.org/2000/svg"><sodipodi:namedview
     id="namedview971"
     pagecolor="#ffffff"
     bordercolor="#000000"
     borderopacity="0.25"
     inkscape:showpageshadow="2"
     inkscape:pageopacity="1"
     inkscape:pagecheckerboard="0"
     inkscape:deskcolor="#ffffff"
     inkscape:document-units="mm"
     showgrid="false"
     showborder="true"
     inkscape:zoom="1.2316035"
     inkscape:cx="28.012261"
     inkscape:cy="94.186153"
     inkscape:window-width="1920"
     inkscape:window-height="1009"
     inkscape:window-x="-8"
     inkscape:window-y="-8"
     inkscape:window-maximized="1"
     inkscape:current-layer="layer1-5" /><defs
     id="defs966"><filter
       style="color-interpolation-filters:sRGB;"
       inkscape:label="Drop Shadow"
       id="filter318"
       x="-0.19193324"
       y="-0.12173605"
       width="1.4439471"
       height="1.2666233"><feFlood
         flood-opacity="0.498039"
         flood-color="rgb(0,0,0)"
         result="flood"
         id="feFlood308" /><feComposite
         in="flood"
         in2="SourceGraphic"
         operator="in"
         result="composite1"
         id="feComposite310" /><feGaussianBlur
         in="composite1"
         stdDeviation="1"
         result="blur"
         id="feGaussianBlur312" /><feOffset
         dx="1"
         dy="1"
         result="offset"
         id="feOffset314" /><feComposite
         in="SourceGraphic"
         in2="offset"
         operator="over"
         result="composite2"
         id="feComposite316" /></filter><filter
       style="color-interpolation-filters:sRGB;"
       inkscape:label="Drop Shadow"
       id="filter1168"
       x="-0.091013831"
       y="-0.21659693"
       width="1.2583668"
       height="1.4128929"><feFlood
         flood-opacity="0.498039"
         flood-color="rgb(0,0,0)"
         result="flood"
         id="feFlood1158" /><feComposite
         in="flood"
         in2="SourceGraphic"
         operator="in"
         result="composite1"
         id="feComposite1160" /><feGaussianBlur
         in="composite1"
         stdDeviation="1"
         result="blur"
         id="feGaussianBlur1162" /><feOffset
         dx="1"
         dy="1"
         result="offset"
         id="feOffset1164" /><feComposite
         in="SourceGraphic"
         in2="offset"
         operator="over"
         result="composite2"
         id="feComposite1166" /></filter><filter
       style="color-interpolation-filters:sRGB;"
       inkscape:label="Drop Shadow"
       id="filter1567"
       x="-0.21449607"
       y="-0.40309784"
       width="1.4966483"
       height="1.932934"><feFlood
         flood-opacity="0.498039"
         flood-color="rgb(0,0,0)"
         result="flood"
         id="feFlood1557" /><feComposite
         in="flood"
         in2="SourceGraphic"
         operator="in"
         result="composite1"
         id="feComposite1559" /><feGaussianBlur
         in="composite1"
         stdDeviation="1"
         result="blur"
         id="feGaussianBlur1561" /><feOffset
         dx="1"
         dy="1"
         result="offset"
         id="feOffset1563" /><feComposite
         in="SourceGraphic"
         in2="offset"
         operator="over"
         result="composite2"
         id="feComposite1565" /></filter><filter
       style="color-interpolation-filters:sRGB"
       inkscape:label="Drop Shadow"
       id="filter1567-3"
       x="-0.20512596"
       y="-0.40309781"
       width="1.4811668"
       height="1.8593214"><feFlood
         flood-opacity="0.498039"
         flood-color="rgb(0,0,0)"
         result="flood"
         id="feFlood1557-1" /><feComposite
         in="flood"
         in2="SourceGraphic"
         operator="in"
         result="composite1"
         id="feComposite1559-0" /><feGaussianBlur
         in="composite1"
         stdDeviation="1"
         result="blur"
         id="feGaussianBlur1561-0" /><feOffset
         dx="1"
         dy="1"
         result="offset"
         id="feOffset1563-6" /><feComposite
         in="SourceGraphic"
         in2="offset"
         operator="over"
         result="composite2"
         id="feComposite1565-7" /></filter><filter
       style="color-interpolation-filters:sRGB"
       inkscape:label="Drop Shadow"
       id="filter1567-4"
       x="-0.20512591"
       y="-0.40309786"
       width="1.4811667"
       height="1.8593215"><feFlood
         flood-opacity="0.498039"
         flood-color="rgb(0,0,0)"
         result="flood"
         id="feFlood1557-0" /><feComposite
         in="flood"
         in2="SourceGraphic"
         operator="in"
         result="composite1"
         id="feComposite1559-2" /><feGaussianBlur
         in="composite1"
         stdDeviation="1"
         result="blur"
         id="feGaussianBlur1561-2" /><feOffset
         dx="1"
         dy="1"
         result="offset"
         id="feOffset1563-61" /><feComposite
         in="SourceGraphic"
         in2="offset"
         operator="over"
         result="composite2"
         id="feComposite1565-6" /></filter><filter
       style="color-interpolation-filters:sRGB;"
       inkscape:label="Drop Shadow"
       id="filter7190"
       x="-0.3262871"
       y="-0.15584502"
       width="1.7189756"
       height="1.3434054"><feFlood
         flood-opacity="0.498039"
         flood-color="rgb(0,0,0)"
         result="flood"
         id="feFlood7180" /><feComposite
         in="flood"
         in2="SourceGraphic"
         operator="in"
         result="composite1"
         id="feComposite7182" /><feGaussianBlur
         in="composite1"
         stdDeviation="1"
         result="blur"
         id="feGaussianBlur7184" /><feOffset
         dx="1"
         dy="1"
         result="offset"
         id="feOffset7186" /><feComposite
         in="SourceGraphic"
         in2="offset"
         operator="over"
         result="composite2"
         id="feComposite7188" /></filter><filter
       style="color-interpolation-filters:sRGB;"
       inkscape:label="Drop Shadow"
       id="filter10151"
       x="-0.11487324"
       y="-0.13674274"
       width="1.2653895"
       height="1.3159175"><feFlood
         flood-opacity="0.498039"
         flood-color="rgb(0,0,0)"
         result="flood"
         id="feFlood10141" /><feComposite
         in="flood"
         in2="SourceGraphic"
         operator="in"
         result="composite1"
         id="feComposite10143" /><feGaussianBlur
         in="composite1"
         stdDeviation="1"
         result="blur"
         id="feGaussianBlur10145" /><feOffset
         dx="1"
         dy="1"
         result="offset"
         id="feOffset10147" /><feComposite
         in="SourceGraphic"
         in2="offset"
         operator="over"
         result="composite2"
         id="feComposite10149" /></filter><filter
       style="color-interpolation-filters:sRGB;"
       inkscape:label="Drop Shadow"
       id="filter859"
       x="-0.85870214"
       y="-0.80145535"
       width="3.0221786"
       height="2.8873667"><feFlood
         flood-opacity="0.498039"
         flood-color="rgb(0,0,0)"
         result="flood"
         id="feFlood849" /><feComposite
         in="flood"
         in2="SourceGraphic"
         operator="in"
         result="composite1"
         id="feComposite851" /><feGaussianBlur
         in="composite1"
         stdDeviation="1"
         result="blur"
         id="feGaussianBlur853" /><feOffset
         dx="1"
         dy="1"
         result="offset"
         id="feOffset855" /><feComposite
         in="SourceGraphic"
         in2="offset"
         operator="over"
         result="composite2"
         id="feComposite857" /></filter><filter
       style="color-interpolation-filters:sRGB;"
       inkscape:label="Drop Shadow"
       id="filter871"
       x="-0.82909177"
       y="-0.75927337"
       width="2.9524484"
       height="2.7880313"><feFlood
         flood-opacity="0.498039"
         flood-color="rgb(0,0,0)"
         result="flood"
         id="feFlood861" /><feComposite
         in="flood"
         in2="SourceGraphic"
         operator="in"
         result="composite1"
         id="feComposite863" /><feGaussianBlur
         in="composite1"
         stdDeviation="1"
         result="blur"
         id="feGaussianBlur865" /><feOffset
         dx="1"
         dy="1"
         result="offset"
         id="feOffset867" /><feComposite
         in="SourceGraphic"
         in2="offset"
         operator="over"
         result="composite2"
         id="feComposite869" /></filter><filter
       style="color-interpolation-filters:sRGB;"
       inkscape:label="Drop Shadow"
       id="filter883"
       x="-0.90163728"
       y="-1.0018191"
       width="3.1232876"
       height="3.3592082"><feFlood
         flood-opacity="0.498039"
         flood-color="rgb(0,0,0)"
         result="flood"
         id="feFlood873" /><feComposite
         in="flood"
         in2="SourceGraphic"
         operator="in"
         result="composite1"
         id="feComposite875" /><feGaussianBlur
         in="composite1"
         stdDeviation="1"
         result="blur"
         id="feGaussianBlur877" /><feOffset
         dx="1"
         dy="1"
         result="offset"
         id="feOffset879" /><feComposite
         in="SourceGraphic"
         in2="offset"
         operator="over"
         result="composite2"
         id="feComposite881" /></filter><filter
       style="color-interpolation-filters:sRGB;"
       inkscape:label="Drop Shadow"
       id="filter895"
       x="-0.9422844"
       y="-0.93950006"
       width="3.2194776"
       height="3.211408"><feFlood
         flood-opacity="0.498039"
         flood-color="rgb(0,0,0)"
         result="flood"
         id="feFlood885" /><feComposite
         in="flood"
         in2="SourceGraphic"
         operator="in"
         result="composite1"
         id="feComposite887" /><feGaussianBlur
         in="composite1"
         stdDeviation="1"
         result="blur"
         id="feGaussianBlur889" /><feOffset
         dx="1"
         dy="1"
         result="offset"
         id="feOffset891" /><feComposite
         in="SourceGraphic"
         in2="offset"
         operator="over"
         result="composite2"
         id="feComposite893" /></filter><filter
       style="color-interpolation-filters:sRGB;"
       inkscape:label="Drop Shadow"
       id="filter907"
       x="-0.85870208"
       y="-0.80145539"
       width="3.0221784"
       height="2.8873668"><feFlood
         flood-opacity="0.498039"
         flood-color="rgb(0,0,0)"
         result="flood"
         id="feFlood897" /><feComposite
         in="flood"
         in2="SourceGraphic"
         operator="in"
         result="composite1"
         id="feComposite899" /><feGaussianBlur
         in="composite1"
         stdDeviation="1"
         result="blur"
         id="feGaussianBlur901" /><feOffset
         dx="1"
         dy="1"
         result="offset"
         id="feOffset903" /><feComposite
         in="SourceGraphic"
         in2="offset"
         operator="over"
         result="composite2"
         id="feComposite905" /></filter><filter
       style="color-interpolation-filters:sRGB;"
       inkscape:label="Drop Shadow"
       id="filter919"
       x="-0.82909184"
       y="-0.86904791"
       width="2.9524486"
       height="3.0465421"><feFlood
         flood-opacity="0.498039"
         flood-color="rgb(0,0,0)"
         result="flood"
         id="feFlood909" /><feComposite
         in="flood"
         in2="SourceGraphic"
         operator="in"
         result="composite1"
         id="feComposite911" /><feGaussianBlur
         in="composite1"
         stdDeviation="1"
         result="blur"
         id="feGaussianBlur913" /><feOffset
         dx="1"
         dy="1"
         result="offset"
         id="feOffset915" /><feComposite
         in="SourceGraphic"
         in2="offset"
         operator="over"
         result="composite2"
         id="feComposite917" /></filter><filter
       style="color-interpolation-filters:sRGB;"
       inkscape:label="Drop Shadow"
       id="filter931"
       x="-1.1276759"
       y="-1.067946"
       width="3.654739"
       height="3.5148319"><feFlood
         flood-opacity="0.498039"
         flood-color="rgb(0,0,0)"
         result="flood"
         id="feFlood921" /><feComposite
         in="flood"
         in2="SourceGraphic"
         operator="in"
         result="composite1"
         id="feComposite923" /><feGaussianBlur
         in="composite1"
         stdDeviation="1"
         result="blur"
         id="feGaussianBlur925" /><feOffset
         dx="1"
         dy="1"
         result="offset"
         id="feOffset927" /><feComposite
         in="SourceGraphic"
         in2="offset"
         operator="over"
         result="composite2"
         id="feComposite929" /></filter><filter
       style="color-interpolation-filters:sRGB;"
       inkscape:label="Drop Shadow"
       id="filter943"
       x="-0.80145539"
       y="-0.85870208"
       width="2.8873668"
       height="3.0221784"><feFlood
         flood-opacity="0.498039"
         flood-color="rgb(0,0,0)"
         result="flood"
         id="feFlood933" /><feComposite
         in="flood"
         in2="SourceGraphic"
         operator="in"
         result="composite1"
         id="feComposite935" /><feGaussianBlur
         in="composite1"
         stdDeviation="1"
         result="blur"
         id="feGaussianBlur937" /><feOffset
         dx="1"
         dy="1"
         result="offset"
         id="feOffset939" /><feComposite
         in="SourceGraphic"
         in2="offset"
         operator="over"
         result="composite2"
         id="feComposite941" /></filter><filter
       style="color-interpolation-filters:sRGB;"
       inkscape:label="Drop Shadow"
       id="filter955"
       x="-0.33549291"
       y="-0.35185852"
       width="1.7900604"
       height="1.8286002"><feFlood
         flood-opacity="0.498039"
         flood-color="rgb(0,0,0)"
         result="flood"
         id="feFlood945" /><feComposite
         in="flood"
         in2="SourceGraphic"
         operator="in"
         result="composite1"
         id="feComposite947" /><feGaussianBlur
         in="composite1"
         stdDeviation="1"
         result="blur"
         id="feGaussianBlur949" /><feOffset
         dx="1"
         dy="1"
         result="offset"
         id="feOffset951" /><feComposite
         in="SourceGraphic"
         in2="offset"
         operator="over"
         result="composite2"
         id="feComposite953" /></filter><filter
       style="color-interpolation-filters:sRGB;"
       inkscape:label="Drop Shadow"
       id="filter967"
       x="-0.19925683"
       y="-0.20261512"
       width="1.4692348"
       height="1.4771433"><feFlood
         flood-opacity="0.498039"
         flood-color="rgb(0,0,0)"
         result="flood"
         id="feFlood957" /><feComposite
         in="flood"
         in2="SourceGraphic"
         operator="in"
         result="composite1"
         id="feComposite959" /><feGaussianBlur
         in="composite1"
         stdDeviation="1"
         result="blur"
         id="feGaussianBlur961" /><feOffset
         dx="1"
         dy="1"
         result="offset"
         id="feOffset963" /><feComposite
         in="SourceGraphic"
         in2="offset"
         operator="over"
         result="composite2"
         id="feComposite965" /></filter><filter
       style="color-interpolation-filters:sRGB;"
       inkscape:label="Drop Shadow"
       id="filter979"
       x="-0.14426196"
       y="-0.14426196"
       width="1.339726"
       height="1.339726"><feFlood
         flood-opacity="0.498039"
         flood-color="rgb(0,0,0)"
         result="flood"
         id="feFlood969" /><feComposite
         in="flood"
         in2="SourceGraphic"
         operator="in"
         result="composite1"
         id="feComposite971" /><feGaussianBlur
         in="composite1"
         stdDeviation="1"
         result="blur"
         id="feGaussianBlur973" /><feOffset
         dx="1"
         dy="1"
         result="offset"
         id="feOffset975" /><feComposite
         in="SourceGraphic"
         in2="offset"
         operator="over"
         result="composite2"
         id="feComposite977" /></filter><filter
       style="color-interpolation-filters:sRGB;"
       inkscape:label="Drop Shadow"
       id="filter991"
       x="-0.80145539"
       y="-0.85870208"
       width="2.8873668"
       height="3.0221784"><feFlood
         flood-opacity="0.498039"
         flood-color="rgb(0,0,0)"
         result="flood"
         id="feFlood981" /><feComposite
         in="flood"
         in2="SourceGraphic"
         operator="in"
         result="composite1"
         id="feComposite983" /><feGaussianBlur
         in="composite1"
         stdDeviation="1"
         result="blur"
         id="feGaussianBlur985" /><feOffset
         dx="1"
         dy="1"
         result="offset"
         id="feOffset987" /><feComposite
         in="SourceGraphic"
         in2="offset"
         operator="over"
         result="composite2"
         id="feComposite989" /></filter><filter
       style="color-interpolation-filters:sRGB;"
       inkscape:label="Drop Shadow"
       id="filter1003"
       x="-0.3354929"
       y="-0.35185845"
       width="1.7900604"
       height="1.8286"><feFlood
         flood-opacity="0.498039"
         flood-color="rgb(0,0,0)"
         result="flood"
         id="feFlood993" /><feComposite
         in="flood"
         in2="SourceGraphic"
         operator="in"
         result="composite1"
         id="feComposite995" /><feGaussianBlur
         in="composite1"
         stdDeviation="1"
         result="blur"
         id="feGaussianBlur997" /><feOffset
         dx="1"
         dy="1"
         result="offset"
         id="feOffset999" /><feComposite
         in="SourceGraphic"
         in2="offset"
         operator="over"
         result="composite2"
         id="feComposite1001" /></filter><filter
       style="color-interpolation-filters:sRGB;"
       inkscape:label="Drop Shadow"
       id="filter1015"
       x="-0.19925684"
       y="-0.20261512"
       width="1.4692348"
       height="1.4771433"><feFlood
         flood-opacity="0.498039"
         flood-color="rgb(0,0,0)"
         result="flood"
         id="feFlood1005" /><feComposite
         in="flood"
         in2="SourceGraphic"
         operator="in"
         result="composite1"
         id="feComposite1007" /><feGaussianBlur
         in="composite1"
         stdDeviation="1"
         result="blur"
         id="feGaussianBlur1009" /><feOffset
         dx="1"
         dy="1"
         result="offset"
         id="feOffset1011" /><feComposite
         in="SourceGraphic"
         in2="offset"
         operator="over"
         result="composite2"
         id="feComposite1013" /></filter><filter
       style="color-interpolation-filters:sRGB"
       inkscape:label="Drop Shadow"
       id="filter871-8"
       x="-0.8290916"
       y="-0.75927343"
       width="2.952448"
       height="2.7880315"><feFlood
         flood-opacity="0.498039"
         flood-color="rgb(0,0,0)"
         result="flood"
         id="feFlood861-2" /><feComposite
         in="flood"
         in2="SourceGraphic"
         operator="in"
         result="composite1"
         id="feComposite863-8" /><feGaussianBlur
         in="composite1"
         stdDeviation="1"
         result="blur"
         id="feGaussianBlur865-6" /><feOffset
         dx="1"
         dy="1"
         result="offset"
         id="feOffset867-2" /><feComposite
         in="SourceGraphic"
         in2="offset"
         operator="over"
         result="composite2"
         id="feComposite869-2" /></filter><filter
       style="color-interpolation-filters:sRGB"
       inkscape:label="Drop Shadow"
       id="filter871-4"
       x="-0.82909184"
       y="-0.75927343"
       width="2.9524486"
       height="2.7880315"><feFlood
         flood-opacity="0.498039"
         flood-color="rgb(0,0,0)"
         result="flood"
         id="feFlood861-6" /><feComposite
         in="flood"
         in2="SourceGraphic"
         operator="in"
         result="composite1"
         id="feComposite863-0" /><feGaussianBlur
         in="composite1"
         stdDeviation="1"
         result="blur"
         id="feGaussianBlur865-1" /><feOffset
         dx="1"
         dy="1"
         result="offset"
         id="feOffset867-8" /><feComposite
         in="SourceGraphic"
         in2="offset"
         operator="over"
         result="composite2"
         id="feComposite869-9" /></filter><filter
       style="color-interpolation-filters:sRGB"
       inkscape:label="Drop Shadow"
       id="filter871-2"
       x="-0.82909194"
       y="-0.75927343"
       width="2.9524488"
       height="2.7880315"><feFlood
         flood-opacity="0.498039"
         flood-color="rgb(0,0,0)"
         result="flood"
         id="feFlood861-7" /><feComposite
         in="flood"
         in2="SourceGraphic"
         operator="in"
         result="composite1"
         id="feComposite863-4" /><feGaussianBlur
         in="composite1"
         stdDeviation="1"
         result="blur"
         id="feGaussianBlur865-5" /><feOffset
         dx="1"
         dy="1"
         result="offset"
         id="feOffset867-81" /><feComposite
         in="SourceGraphic"
         in2="offset"
         operator="over"
         result="composite2"
         id="feComposite869-7" /></filter><filter
       style="color-interpolation-filters:sRGB"
       inkscape:label="Drop Shadow"
       id="filter871-5"
       x="-0.82909172"
       y="-0.75927347"
       width="2.9524483"
       height="2.7880316"><feFlood
         flood-opacity="0.498039"
         flood-color="rgb(0,0,0)"
         result="flood"
         id="feFlood861-28" /><feComposite
         in="flood"
         in2="SourceGraphic"
         operator="in"
         result="composite1"
         id="feComposite863-1" /><feGaussianBlur
         in="composite1"
         stdDeviation="1"
         result="blur"
         id="feGaussianBlur865-53" /><feOffset
         dx="1"
         dy="1"
         result="offset"
         id="feOffset867-3" /><feComposite
         in="SourceGraphic"
         in2="offset"
         operator="over"
         result="composite2"
         id="feComposite869-95" /></filter><filter
       style="color-interpolation-filters:sRGB"
       inkscape:label="Drop Shadow"
       id="filter883-4"
       x="-0.90163728"
       y="-1.0018191"
       width="3.1232876"
       height="3.3592081"><feFlood
         flood-opacity="0.498039"
         flood-color="rgb(0,0,0)"
         result="flood"
         id="feFlood873-1" /><feComposite
         in="flood"
         in2="SourceGraphic"
         operator="in"
         result="composite1"
         id="feComposite875-2" /><feGaussianBlur
         in="composite1"
         stdDeviation="1"
         result="blur"
         id="feGaussianBlur877-7" /><feOffset
         dx="1"
         dy="1"
         result="offset"
         id="feOffset879-6" /><feComposite
         in="SourceGraphic"
         in2="offset"
         operator="over"
         result="composite2"
         id="feComposite881-4" /></filter><filter
       style="color-interpolation-filters:sRGB"
       inkscape:label="Drop Shadow"
       id="filter895-4"
       x="-0.94228438"
       y="-0.93950016"
       width="3.2194776"
       height="3.2114088"><feFlood
         flood-opacity="0.498039"
         flood-color="rgb(0,0,0)"
         result="flood"
         id="feFlood885-3" /><feComposite
         in="flood"
         in2="SourceGraphic"
         operator="in"
         result="composite1"
         id="feComposite887-5" /><feGaussianBlur
         in="composite1"
         stdDeviation="1"
         result="blur"
         id="feGaussianBlur889-5" /><feOffset
         dx="1"
         dy="1"
         result="offset"
         id="feOffset891-4" /><feComposite
         in="SourceGraphic"
         in2="offset"
         operator="over"
         result="composite2"
         id="feComposite893-9" /></filter><filter
       style="color-interpolation-filters:sRGB"
       inkscape:label="Drop Shadow"
       id="filter931-2"
       x="-1.127676"
       y="-1.0679458"
       width="3.6547392"
       height="3.5148312"><feFlood
         flood-opacity="0.498039"
         flood-color="rgb(0,0,0)"
         result="flood"
         id="feFlood921-3" /><feComposite
         in="flood"
         in2="SourceGraphic"
         operator="in"
         result="composite1"
         id="feComposite923-6" /><feGaussianBlur
         in="composite1"
         stdDeviation="1"
         result="blur"
         id="feGaussianBlur925-5" /><feOffset
         dx="1"
         dy="1"
         result="offset"
         id="feOffset927-8" /><feComposite
         in="SourceGraphic"
         in2="offset"
         operator="over"
         result="composite2"
         id="feComposite929-5" /></filter><filter
       style="color-interpolation-filters:sRGB"
       inkscape:label="Drop Shadow"
       id="filter955-7"
       x="-0.33549291"
       y="-0.3518585"
       width="1.7900604"
       height="1.8286001"><feFlood
         flood-opacity="0.498039"
         flood-color="rgb(0,0,0)"
         result="flood"
         id="feFlood945-1" /><feComposite
         in="flood"
         in2="SourceGraphic"
         operator="in"
         result="composite1"
         id="feComposite947-2" /><feGaussianBlur
         in="composite1"
         stdDeviation="1"
         result="blur"
         id="feGaussianBlur949-4" /><feOffset
         dx="1"
         dy="1"
         result="offset"
         id="feOffset951-7" /><feComposite
         in="SourceGraphic"
         in2="offset"
         operator="over"
         result="composite2"
         id="feComposite953-9" /></filter><filter
       style="color-interpolation-filters:sRGB;"
       inkscape:label="Drop Shadow"
       id="filter30943"
       x="-0.15329055"
       y="-1.0304428"
       width="1.3363092"
       height="4.2470975"><feFlood
         flood-opacity="0.498039"
         flood-color="rgb(0,0,0)"
         result="flood"
         id="feFlood30933" /><feComposite
         in="flood"
         in2="SourceGraphic"
         operator="in"
         result="composite1"
         id="feComposite30935" /><feGaussianBlur
         in="composite1"
         stdDeviation="1"
         result="blur"
         id="feGaussianBlur30937" /><feOffset
         dx="1"
         dy="1"
         result="offset"
         id="feOffset30939" /><feComposite
         in="SourceGraphic"
         in2="offset"
         operator="over"
         result="composite2"
         id="feComposite30941" /></filter><filter
       style="color-interpolation-filters:sRGB;"
       inkscape:label="Drop Shadow"
       id="filter30955"
       x="-1.5803972"
       y="-0.9124429"
       width="4.7217161"
       height="3.1487342"><feFlood
         flood-opacity="0.498039"
         flood-color="rgb(0,0,0)"
         result="flood"
         id="feFlood30945" /><feComposite
         in="flood"
         in2="SourceGraphic"
         operator="in"
         result="composite1"
         id="feComposite30947" /><feGaussianBlur
         in="composite1"
         stdDeviation="1"
         result="blur"
         id="feGaussianBlur30949" /><feOffset
         dx="1"
         dy="1"
         result="offset"
         id="feOffset30951" /><feComposite
         in="SourceGraphic"
         in2="offset"
         operator="over"
         result="composite2"
         id="feComposite30953" /></filter><filter
       style="color-interpolation-filters:sRGB;"
       inkscape:label="Drop Shadow"
       id="filter30967"
       x="-0.13699842"
       y="-0.9522408"
       width="1.3284153"
       height="3.2827302"><feFlood
         flood-opacity="0.498039"
         flood-color="rgb(0,0,0)"
         result="flood"
         id="feFlood30957" /><feComposite
         in="flood"
         in2="SourceGraphic"
         operator="in"
         result="composite1"
         id="feComposite30959" /><feGaussianBlur
         in="composite1"
         stdDeviation="1"
         result="blur"
         id="feGaussianBlur30961" /><feOffset
         dx="1"
         dy="1"
         result="offset"
         id="feOffset30963" /><feComposite
         in="SourceGraphic"
         in2="offset"
         operator="over"
         result="composite2"
         id="feComposite30965" /></filter><linearGradient
       inkscape:collect="always"
       id="linearGradient4348"><stop
         style="stop-color:#000000;stop-opacity:1;"
         offset="0"
         id="stop4350" /><stop
         style="stop-color:#000000;stop-opacity:0;"
         offset="1"
         id="stop4352" /></linearGradient><linearGradient
       id="linearGradient4332"><stop
         style="stop-color:#ffffff;stop-opacity:1;"
         offset="0"
         id="stop4334" /><stop
         id="stop4342"
         offset="0.210629"
         style="stop-color:#1d4f98;stop-opacity:0.78431373;" /><stop
         style="stop-color:#002864;stop-opacity:0.67843139;"
         offset="0.39605987"
         id="stop4344" /><stop
         style="stop-color:#000000;stop-opacity:1;"
         offset="1"
         id="stop4336" /></linearGradient><linearGradient
       inkscape:collect="always"
       id="linearGradient4213"><stop
         style="stop-color:#1d4f98;stop-opacity:1;"
         offset="0"
         id="stop4215" /><stop
         style="stop-color:#1d4f98;stop-opacity:0;"
         offset="1"
         id="stop4217" /></linearGradient><linearGradient
       id="linearGradient4191"><stop
         style="stop-color:#00515a;stop-opacity:1;"
         offset="0"
         id="stop4193" /><stop
         style="stop-color:#01bcd1;stop-opacity:1;"
         offset="1"
         id="stop4195" /></linearGradient><linearGradient
       id="linearGradient4179"><stop
         style="stop-color:#8eb3ea;stop-opacity:1;"
         offset="0"
         id="stop4181" /><stop
         id="stop4183"
         offset="0.32030112"
         style="stop-color:#0b0b0b;stop-opacity:0.99607843;" /><stop
         style="stop-color:#00050e;stop-opacity:0.9910714;"
         offset="1"
         id="stop4185" /></linearGradient><linearGradient
       id="linearGradient3983"><stop
         id="stop3985"
         offset="0"
         style="stop-color:#fffbfb;stop-opacity:1;" /><stop
         style="stop-color:#bfc4d4;stop-opacity:0.99607843;"
         offset="0.25"
         id="stop4187" /><stop
         style="stop-color:#7f8ead;stop-opacity:0.99607843;"
         offset="0.5"
         id="stop4177" /><stop
         id="stop3987"
         offset="1"
         style="stop-color:#002160;stop-opacity:0.9910714;" /></linearGradient><linearGradient
       id="linearGradient3947"><stop
         id="stop3949"
         style="stop-color:#dee6f3;stop-opacity:1;"
         offset="0" /><stop
         id="stop3951"
         style="stop-color:#2766fb;stop-opacity:1;"
         offset="1" /></linearGradient><linearGradient
       id="linearGradient2949"><stop
         offset="0"
         style="stop-color:#5aa55a"
         id="stop2951" /><stop
         offset="1"
         style="stop-color:#f2f2f5"
         id="stop2953" /></linearGradient><filter
       inkscape:label="Drop shadow"
       x="-0.25"
       y="-0.25"
       width="1.5"
       height="1.5"
       id="filter3015"
       color-interpolation-filters="sRGB"><feGaussianBlur
         in="SourceAlpha"
         stdDeviation="1"
         result="blur"
         id="feGaussianBlur3017" /><feColorMatrix
         result="bluralpha"
         type="matrix"
         values="1 0 0 0 0 0 1 0 0 0 0 0 1 0 0 0 0 0 0.6 0 "
         id="feColorMatrix3019" /><feOffset
         in="bluralpha"
         dx="0"
         dy="2"
         result="offsetBlur"
         id="feOffset3021" /><feMerge
         id="feMerge3023"><feMergeNode
           in="offsetBlur"
           id="feMergeNode3025" /><feMergeNode
           in="SourceGraphic"
           id="feMergeNode3027" /></feMerge></filter><filter
       inkscape:label="Drop shadow"
       x="-0.25"
       y="-0.25"
       width="1.5"
       height="1.5"
       id="filter3001"
       color-interpolation-filters="sRGB"><feGaussianBlur
         in="SourceAlpha"
         stdDeviation="1"
         result="blur"
         id="feGaussianBlur3003" /><feColorMatrix
         result="bluralpha"
         type="matrix"
         values="1 0 0 0 0 0 1 0 0 0 0 0 1 0 0 0 0 0 0.6 0 "
         id="feColorMatrix3005" /><feOffset
         in="bluralpha"
         dx="0"
         dy="2"
         result="offsetBlur"
         id="feOffset3007" /><feMerge
         id="feMerge3009"><feMergeNode
           in="offsetBlur"
           id="feMergeNode3011" /><feMergeNode
           in="SourceGraphic"
           id="feMergeNode3013" /></feMerge></filter><filter
       color-interpolation-filters="sRGB"
       id="filter6789"
       inkscape:label="Drop shadow"
       width="1.5"
       height="1.5"
       x="-0.25"
       y="-0.25"><feGaussianBlur
         id="feGaussianBlur6791"
         in="SourceAlpha"
         stdDeviation="4"
         result="blur" /><feColorMatrix
         id="feColorMatrix6793"
         result="bluralpha"
         type="matrix"
         values="1 0 0 0 0 0 1 0 0 0 0 0 1 0 0 0 0 0 0.7 0 " /><feOffset
         id="feOffset6795"
         in="bluralpha"
         dx="8"
         dy="10"
         result="offsetBlur" /><feMerge
         id="feMerge6797"><feMergeNode
           id="feMergeNode6799"
           in="offsetBlur" /><feMergeNode
           id="feMergeNode6801"
           in="SourceGraphic" /></feMerge></filter><linearGradient
       id="linearGradient3789-2"><stop
         id="stop3791-29"
         offset="0"
         style="stop-color:#eb9c7b;stop-opacity:0.90178573;" /><stop
         id="stop3793-8"
         offset="1"
         style="stop-color:#ff000d;stop-opacity:1;" /></linearGradient><linearGradient
       inkscape:collect="always"
       xlink:href="#linearGradient3814-2"
       id="linearGradient9367"
       gradientUnits="userSpaceOnUse"
       x1="59.998959"
       y1="46.928581"
       x2="76.429611"
       y2="46.928581" /><linearGradient
       id="linearGradient3814-2"><stop
         style="stop-color:#92999c;stop-opacity:0.90178573;"
         offset="0"
         id="stop3816-2" /><stop
         style="stop-color:#f7f7f7;stop-opacity:0.9464286;"
         offset="1"
         id="stop3818-7" /></linearGradient><filter
       id="filter9531"
       inkscape:label="Drop shadow"
       width="1.5"
       height="1.5"
       x="-0.25"
       y="-0.25"
       color-interpolation-filters="sRGB"><feGaussianBlur
         id="feGaussianBlur9533"
         in="SourceAlpha"
         stdDeviation="4"
         result="blur" /><feColorMatrix
         id="feColorMatrix9535"
         result="bluralpha"
         type="matrix"
         values="1 0 0 0 0 0 1 0 0 0 0 0 1 0 0 0 0 0 0.7 0 " /><feOffset
         id="feOffset9537"
         in="bluralpha"
         dx="8"
         dy="10"
         result="offsetBlur" /><feMerge
         id="feMerge9539"><feMergeNode
           id="feMergeNode9541"
           in="offsetBlur" /><feMergeNode
           id="feMergeNode9543"
           in="SourceGraphic" /></feMerge></filter><linearGradient
       inkscape:collect="always"
       xlink:href="#linearGradient3765"
       id="linearGradient3763"
       x1="30"
       y1="59"
       x2="30"
       y2="4"
       gradientUnits="userSpaceOnUse" /><linearGradient
       id="linearGradient3765"><stop
         id="stop3767"
         offset="0"
         style="stop-color:#cc1200;stop-opacity:1;" /><stop
         id="stop3769"
         offset="1"
         style="stop-color:#fcff00;stop-opacity:1;" /></linearGradient><linearGradient
       inkscape:collect="always"
       xlink:href="#linearGradient3878-3"
       id="linearGradient9759-2"
       gradientUnits="userSpaceOnUse"
       gradientTransform="matrix(0.60130245,0,0,0.26504869,-1129.9197,96.214625)"
       x1="239"
       y1="310.35999"
       x2="252"
       y2="310.35999" /><linearGradient
       inkscape:collect="always"
       x1="239"
       y1="310.35999"
       gradientTransform="translate(187.33,-280.8)"
       x2="252"
       gradientUnits="userSpaceOnUse"
       y2="310.35999"
       id="linearGradient3878-3"><stop
         offset="0"
         style="stop-color:#333333"
         id="stop2935-2" /><stop
         offset=".36001"
         style="stop-color:#666666"
         id="stop2941-2" /><stop
         offset=".75079"
         style="stop-color:#333333"
         id="stop2943-1" /><stop
         offset="1"
         style="stop-color:#1a1a1a"
         id="stop2937-6" /></linearGradient><linearGradient
       inkscape:collect="always"
       xlink:href="#linearGradient2975-5"
       id="linearGradient9723-8"
       gradientUnits="userSpaceOnUse"
       x1="291.12"
       y1="301.35999"
       x2="297.75"
       y2="284.04999" /><linearGradient
       inkscape:collect="always"
       id="linearGradient2975-5"><stop
         offset="0"
         style="stop-color:#d4aa00"
         id="stop2977-7" /><stop
         offset=".41582"
         style="stop-color:#ffcc00"
         id="stop2983-6" /><stop
         offset="1"
         style="stop-color:#fff6d4"
         id="stop2979-1" /></linearGradient><radialGradient
       inkscape:collect="always"
       xlink:href="#radialGradient6916-6-0-6"
       id="radialGradient11524"
       gradientUnits="userSpaceOnUse"
       gradientTransform="scale(1.644,0.60828)"
       cx="15.116"
       cy="63.965"
       r="12.289" /><radialGradient
       id="radialGradient6916-6-0-6"
       gradientUnits="userSpaceOnUse"
       cy="63.965"
       cx="15.116"
       gradientTransform="scale(1.644,0.60828)"
       r="12.289"
       inkscape:collect="always"><stop
         id="stop4116-7-5-8"
         style="stop-color:#000000"
         offset="0" /><stop
         id="stop4118-9-4-8"
         style="stop-color:#000000;stop-opacity:0"
         offset="1" /></radialGradient><radialGradient
       inkscape:collect="always"
       xlink:href="#linearGradient4146"
       id="radialGradient11526"
       gradientUnits="userSpaceOnUse"
       gradientTransform="matrix(1.751153,0,0,1.7511704,21.567597,971.13326)"
       cx="18.247999"
       cy="15.716"
       r="29.993" /><linearGradient
       id="linearGradient4146"><stop
         offset="0"
         style="stop-color:#0855c1"
         id="stop4148" /><stop
         offset="1"
         style="stop-color:#3d8bf7"
         id="stop4150" /></linearGradient><linearGradient
       inkscape:collect="always"
       xlink:href="#linearGradient3789-2"
       id="linearGradient11594-5"
       gradientUnits="userSpaceOnUse"
       gradientTransform="matrix(0.93904786,0,0,0.93904786,138.95691,910.69392)"
       x1="46.063698"
       y1="58.794037"
       x2="87.875961"
       y2="58.794037" /><filter
       id="filter4091"
       inkscape:label="Drop shadow"
       width="1.5"
       height="1.5"
       x="-.25"
       y="-.25"><feGaussianBlur
         id="feGaussianBlur4093"
         in="SourceAlpha"
         stdDeviation="1"
         result="blur" /><feColorMatrix
         id="feColorMatrix4095"
         result="bluralpha"
         type="matrix"
         values="1 0 0 0 0 0 1 0 0 0 0 0 1 0 0 0 0 0 0.5 0 " /><feOffset
         id="feOffset4097"
         in="bluralpha"
         dx="2"
         dy="2"
         result="offsetBlur" /><feMerge
         id="feMerge4099"><feMergeNode
           id="feMergeNode4101"
           in="offsetBlur" /><feMergeNode
           id="feMergeNode4103"
           in="SourceGraphic" /></feMerge></filter><filter
       id="filter4157"
       inkscape:label="Drop shadow"
       width="1.5"
       height="1.5"
       x="-.25"
       y="-.25"><feGaussianBlur
         id="feGaussianBlur4159"
         in="SourceAlpha"
         stdDeviation="1"
         result="blur" /><feColorMatrix
         id="feColorMatrix4161"
         result="bluralpha"
         type="matrix"
         values="1 0 0 0 0 0 1 0 0 0 0 0 1 0 0 0 0 0 0.5 0 " /><feOffset
         id="feOffset4163"
         in="bluralpha"
         dx="2"
         dy="2"
         result="offsetBlur" /><feMerge
         id="feMerge4165"><feMergeNode
           id="feMergeNode4167"
           in="offsetBlur" /><feMergeNode
           id="feMergeNode4169"
           in="SourceGraphic" /></feMerge></filter><radialGradient
       inkscape:collect="always"
       xlink:href="#linearGradient3947"
       id="radialGradient4205"
       gradientUnits="userSpaceOnUse"
       gradientTransform="matrix(-0.99989296,-0.01463086,0.03885816,-2.6556197,22.499126,3707.486)"
       cx="30.961672"
       cy="1014.4821"
       fx="30.961672"
       fy="1014.4821"
       r="6.4989738" /><radialGradient
       inkscape:collect="always"
       xlink:href="#linearGradient4179"
       id="radialGradient4207"
       gradientUnits="userSpaceOnUse"
       gradientTransform="matrix(0.06096578,-1.7681174,3.7014522,-0.90535354,-39.325891,106.55393)"
       cx="40.171085"
       cy="16.022463"
       fx="40.171085"
       fy="16.022463"
       r="6.6071429" /><radialGradient
       inkscape:collect="always"
       xlink:href="#linearGradient4213"
       id="radialGradient4219"
       cx="33.917739"
       cy="1046.7481"
       fx="33.917739"
       fy="1046.7481"
       r="17.279958"
       gradientTransform="matrix(1,0,0,0.19834841,0,840.46655)"
       gradientUnits="userSpaceOnUse" /><radialGradient
       inkscape:collect="always"
       xlink:href="#linearGradient3947-7"
       id="radialGradient4205-7"
       gradientUnits="userSpaceOnUse"
       gradientTransform="matrix(-0.99989296,-0.01463086,0.03885816,-2.6556197,22.499126,3707.486)"
       cx="30.961672"
       cy="1014.4821"
       fx="30.961672"
       fy="1014.4821"
       r="6.4989738" /><linearGradient
       id="linearGradient3947-7"><stop
         id="stop3949-1"
         style="stop-color:#56ffe7;stop-opacity:1;"
         offset="0" /><stop
         id="stop3951-2"
         style="stop-color:#005d6a;stop-opacity:1;"
         offset="1" /></linearGradient><radialGradient
       inkscape:collect="always"
       xlink:href="#linearGradient4179"
       id="radialGradient4207-6"
       gradientUnits="userSpaceOnUse"
       gradientTransform="matrix(0.06096578,-1.7681174,3.7014522,-0.90535354,-39.325891,106.55393)"
       cx="40.171085"
       cy="16.022463"
       fx="40.171085"
       fy="16.022463"
       r="6.6071429" /><radialGradient
       inkscape:collect="always"
       xlink:href="#linearGradient3947-7"
       id="radialGradient4324"
       gradientUnits="userSpaceOnUse"
       gradientTransform="matrix(-2.6173805,-0.03829863,0.10171748,-6.9515113,11.688038,8062.3066)"
       cx="30.961672"
       cy="1014.4821"
       fx="30.961672"
       fy="1014.4821"
       r="6.4989738" /><radialGradient
       inkscape:collect="always"
       xlink:href="#linearGradient3765"
       id="radialGradient4340"
       cx="-72.408455"
       cy="-15.332119"
       fx="-72.408455"
       fy="-15.332119"
       r="29.7995"
       gradientTransform="matrix(0.33839395,1.2661152,-2.3730091,0.63423292,-79.055816,82.947884)"
       gradientUnits="userSpaceOnUse" /><radialGradient
       inkscape:collect="always"
       xlink:href="#linearGradient4348"
       id="radialGradient4354"
       cx="-72.604717"
       cy="1015.6809"
       fx="-72.604717"
       fy="1015.6809"
       r="35.729073"
       gradientTransform="matrix(0.65480322,0,0,0.38683494,-21.187705,623.91643)"
       gradientUnits="userSpaceOnUse" /><radialGradient
       inkscape:collect="always"
       xlink:href="#linearGradient3765"
       id="radialGradient4362"
       cx="-72.604713"
       cy="1015.6809"
       fx="-72.604713"
       fy="1015.6809"
       r="35.729073"
       gradientTransform="matrix(0.65480322,0,0,0.38683494,-21.187705,623.91643)"
       gradientUnits="userSpaceOnUse" /><linearGradient
       inkscape:collect="always"
       xlink:href="#linearGradient4348"
       id="linearGradient4372"
       x1="-42.495922"
       y1="2.1265311"
       x2="-7.2463393"
       y2="2.1265311"
       gradientUnits="userSpaceOnUse" /><radialGradient
       inkscape:collect="always"
       xlink:href="#linearGradient3765"
       id="radialGradient4362-9"
       cx="-72.604713"
       cy="1015.6809"
       fx="-72.604713"
       fy="1015.6809"
       r="35.729073"
       gradientTransform="matrix(0.65480322,0,0,0.38683494,-21.187705,623.91643)"
       gradientUnits="userSpaceOnUse" /><radialGradient
       inkscape:collect="always"
       xlink:href="#linearGradient4348"
       id="radialGradient4354-5"
       cx="-72.604713"
       cy="1015.6809"
       fx="-72.604713"
       fy="1015.6809"
       r="35.729073"
       gradientTransform="matrix(0.65480322,0,0,0.38683494,-21.187705,623.91643)"
       gradientUnits="userSpaceOnUse" /><radialGradient
       r="35.729073"
       fy="1015.6809"
       fx="-72.604713"
       cy="1015.6809"
       cx="-72.604713"
       gradientTransform="matrix(0.40487539,-0.06835348,-0.07092472,-0.38023994,30.936997,1346.7291)"
       gradientUnits="userSpaceOnUse"
       id="radialGradient4393"
       xlink:href="#linearGradient3765"
       inkscape:collect="always" /><radialGradient
       r="35.729073"
       fy="1015.6809"
       fx="-72.604713"
       cy="1015.6809"
       cx="-72.604713"
       gradientTransform="matrix(0.40487539,-0.06835348,-0.07092472,-0.38023994,30.936997,1346.7291)"
       gradientUnits="userSpaceOnUse"
       id="radialGradient4395"
       xlink:href="#linearGradient4348"
       inkscape:collect="always" /><radialGradient
       inkscape:collect="always"
       xlink:href="#linearGradient3765"
       id="radialGradient4340-8"
       cx="-72.408455"
       cy="-15.332119"
       fx="-72.408455"
       fy="-15.332119"
       r="29.7995"
       gradientTransform="matrix(0.33839395,1.2661152,-2.3730091,0.63423292,-79.055816,82.947884)"
       gradientUnits="userSpaceOnUse" /><radialGradient
       inkscape:collect="always"
       xlink:href="#linearGradient3765"
       id="radialGradient4362-0"
       cx="-72.604713"
       cy="1015.6809"
       fx="-72.604713"
       fy="1015.6809"
       r="35.729073"
       gradientTransform="matrix(0.65480322,0,0,0.38683494,-21.187705,623.91643)"
       gradientUnits="userSpaceOnUse" /><radialGradient
       inkscape:collect="always"
       xlink:href="#linearGradient4348"
       id="radialGradient4354-2"
       cx="-72.604713"
       cy="1015.6809"
       fx="-72.604713"
       fy="1015.6809"
       r="35.729073"
       gradientTransform="matrix(0.65480322,0,0,0.38683494,-21.187705,623.91643)"
       gradientUnits="userSpaceOnUse" /><radialGradient
       r="35.729073"
       fy="1015.6809"
       fx="-72.604713"
       cy="1015.6809"
       cx="-72.604713"
       gradientTransform="matrix(0.40487539,-0.06835348,-0.07092472,-0.38023994,30.936997,1346.7291)"
       gradientUnits="userSpaceOnUse"
       id="radialGradient4393-7"
       xlink:href="#linearGradient3765"
       inkscape:collect="always" /><radialGradient
       r="35.729073"
       fy="1015.6809"
       fx="-72.604713"
       cy="1015.6809"
       cx="-72.604713"
       gradientTransform="matrix(0.40487539,-0.06835348,-0.07092472,-0.38023994,30.936997,1346.7291)"
       gradientUnits="userSpaceOnUse"
       id="radialGradient4395-1"
       xlink:href="#linearGradient4348"
       inkscape:collect="always" /><radialGradient
       r="35.729073"
       fy="1015.6809"
       fx="-72.604713"
       cy="1015.6809"
       cx="-72.604713"
       gradientTransform="matrix(0.40487539,-0.06835348,-0.07092472,-0.38023994,29.876853,1348.2325)"
       gradientUnits="userSpaceOnUse"
       id="radialGradient4666"
       xlink:href="#linearGradient3765"
       inkscape:collect="always" /><radialGradient
       r="35.729073"
       fy="1015.6809"
       fx="-72.604713"
       cy="1015.6809"
       cx="-72.604713"
       gradientTransform="matrix(0.40487539,-0.06835348,-0.07092472,-0.38023994,29.876853,1348.2325)"
       gradientUnits="userSpaceOnUse"
       id="radialGradient4668"
       xlink:href="#linearGradient4348"
       inkscape:collect="always" /><inkscape:perspective
       sodipodi:type="inkscape:persp3d"
       inkscape:vp_x="0 : 526.18109 : 1"
       inkscape:vp_y="0 : 1000 : 0"
       inkscape:vp_z="744.09448 : 526.18109 : 1"
       inkscape:persp3d-origin="372.04724 : 350.78739 : 1"
       id="perspective3359" /><inkscape:path-effect
       effect="spiro"
       id="path-effect4623"
       is_visible="true" /><inkscape:path-effect
       effect="spiro"
       id="path-effect4590"
       is_visible="true" /><inkscape:path-effect
       effect="spiro"
       id="path-effect4539"
       is_visible="true" /><clipPath
       clipPathUnits="userSpaceOnUse"
       id="clipPath3790"><path
         style="fill:#282828;stroke:none;stroke-width:0.319999"
         d="m 13.81885,291.09406 0.25288,0.88504 -0.63218,-0.50573 h -0.25287 l -0.12648,0.12648 0.50574,0.75861 -1.011491,-0.12648 v 0.50574 l 0.758611,0.12648 v 0.12649 l -0.885051,0.12648 c 0.15995,0.47758 0.421541,0.45127 0.885051,0.37931 l -0.632171,0.63216 0.252871,0.37931 h 0.12648 l 0.63217,-0.37931 -0.25286,0.88505 h 0.50574 l 0.3793,-0.63217 v 0.88504 l 0.7586,-0.88504 0.12648,0.63217 0.50574,-0.12648 -0.25286,-0.88505 0.75861,0.50574 0.12648,-0.50574 -0.63218,-0.25287 v -0.12648 h 0.88504 v -0.50573 h -0.7586 v -0.3793 l 0.7586,-0.12649 -0.12648,-0.3793 -0.88505,0.25286 0.50575,-0.63216 v -0.25288 l -1.01148,0.3793 0.12649,-0.88503 h -0.50574 v 0.75861 h -0.37931 v -0.75861 h -0.50574 m 0.63281,1.63369 c 0.3697,-0.0651 0.44265,0.56458 0.093,0.63452 -0.40382,0.0808 -0.48942,-0.56481 -0.093,-0.63452 m 4.80388,-0.11648 0.12649,0.75861 -0.50573,-0.50573 -0.50574,0.12649 0.3793,0.7586 -0.88503,-0.25287 v 0.50574 l 0.63216,0.3793 -0.7586,0.12649 v 0.50574 l 0.88504,-0.12648 -0.63218,0.50573 0.12649,0.3793 1.01147,-0.3793 -0.37929,0.7586 0.63217,0.12649 v -0.75859 h 0.3793 v 0.75859 l 0.50573,-0.12649 -0.12649,-0.88504 0.75861,0.50574 0.12649,-0.12648 -0.50575,-0.88504 0.88505,0.12649 v -0.50573 H 20.6465 l 0.63217,-0.37931 -0.12649,-0.50574 -0.88505,0.12649 0.50573,-0.63217 -0.50573,-0.25287 -0.50574,0.63217 v -0.75861 h -0.50573 m -4.93096,0.25288 v 0.37929 l 0.3793,-0.12648 v -0.12649 l -0.3793,-0.12648 m 5.56313,1.51717 v 0.12648 l -0.50574,0.25288 v -0.63218 l 0.50574,0.25288 m -4.29878,1.13794 0.12648,0.88503 -0.50574,-0.63217 h -0.25287 l -0.12648,0.12649 0.3793,0.75861 -0.88504,-0.37931 -0.12649,0.50573 0.50575,0.50574 -0.88505,-0.12648 0.75862,0.50574 -0.88505,0.37931 c 0.24174,0.3693 0.46731,0.34016 0.88505,0.25286 l -0.63218,0.50574 0.12648,0.50575 0.88505,-0.25288 -0.50574,0.75861 0.12648,0.12648 0.88505,-0.50573 c -0.15641,0.43919 -0.27564,0.71193 0.12648,1.01148 l 0.50573,-0.75861 -0.12648,0.75861 0.12648,0.12648 h 0.25288 l 0.12649,-0.88503 0.3793,0.63217 h 0.50574 l -0.25288,-0.88505 1.01149,0.3793 -0.50574,-0.88503 0.7586,0.3793 0.12649,-0.50574 -0.63217,-0.3793 h 0.88505 v -0.37931 h -0.75862 v -0.3793 h 0.63218 v -0.50575 l -0.88505,0.12649 0.63217,-0.50574 v -0.25287 l -0.12648,-0.12648 -0.88505,0.3793 0.3793,-0.88505 -0.3793,-0.12648 -0.63217,0.63218 0.25286,-0.7586 -0.50574,-0.12649 v 0.75861 h -0.3793 V 295.5193 H 15.5892 m 0.27145,1.84879 c 0.73028,-0.28388 1.18318,0.8291 0.46856,1.10688 -0.73029,0.28388 -1.18317,-0.82909 -0.46856,-1.10688 m 0.13664,0.35818 c -0.2468,0.10244 -0.093,0.49878 0.15337,0.38729 0.22555,-0.10214 0.0863,-0.4869 -0.15337,-0.38729 M 1.1968194,362.49655 c 0.32734,0.87815 0.42457,1.60371 0.25287,2.52871 0.83877,-0.48502 1.2294501,-2.92315 -0.25287,-2.52871 m 1.26435,-0.12648 -0.12644,2.65513 c 0.9433301,-0.47911 1.2437401,-1.53556 1.2643501,-2.52869 l -1.1379101,-0.12649 m -2.52869996,0.50573 0.75861,2.40227 c 0.81031996,-0.61685 0.58728996,-2.85065 -0.75861,-2.40227 m 4.17234006,-0.12648 -1.01147,2.40226 c 1.03006,-0.13768 1.63467,-0.99669 2.02295,-1.89652 l -1.01147,-0.50556 m -4.67808006,0.63211 c -0.37020001,0.8834 -0.0871,1.57366 0.75861,2.02296 -0.007,-0.79362 -0.13466,-1.48662 -0.75861,-2.02296 m 6.06886006,0.25288 -1.64365,2.02296 c 1.2445,-0.0264 2.99789,-0.68136 1.89652,-2.02296 h -0.25287 m -1.01148,2.52871 v 0.12649 c 1.07091,0.31655 3.24824,0.12812 2.40226,-1.39078 l -2.40226,1.26434 m 0.50574,0.75862 c 0.51573,0.84367 1.91978,0.63217 2.78156,0.63217 l -0.12642,-1.13791 -2.65513,0.50574 m 0.12644,0.88503 c 0.69286,1.10334 2.4039,2.10668 2.65512,0.25287 l -2.65512,-0.25287 m 0,0.88505 c 0.21885,0.90068 0.9131,1.15223 1.77008,1.01147 v -0.12648 l -1.77008,-0.88503 M 51.50129,394.55638 c -1.79828,0.28674 -0.78871,2.47887 -0.75128,3.5566 0.015,0.43303 -0.20217,0.82436 -0.26019,1.24791 -1.38523,0.42052 0.37588,2.00018 0.63216,0.3793 1.61949,-0.51194 0.0984,-2.79015 0.4462,-3.7766 0.19949,-0.56567 1.05711,-0.859 1.11375,-1.41253 0.0942,-0.92095 -0.98075,-0.66745 -1.18064,0.006 m 0.25287,0.25304 c -0.0333,0.43116 -0.0859,0.61966 -0.50573,0.75861 l -0.1265,0.88505 v 0.12648 c 0.38362,0.38146 0.32558,0.65518 0.1265,1.13791 0.58095,0.19357 0.48258,0.61827 0,0.88505 0.25969,0.51648 0.19748,0.83623 -0.37931,1.01147 -0.10305,1.32188 -1.42038,0.08 -0.12649,-0.12648 l 0.3793,-0.75862 v -1.1379 c -0.48222,-0.31697 -0.4281,-0.62448 -0.25286,-1.13793 -0.43,-0.28131 -0.34226,-0.60284 0.12648,-0.75859 -0.0871,-0.56694 -0.0249,-0.98102 0.63218,-0.88505 0.24704,-1.54908 1.4808,0.30825 0.12648,0 m 4.93093,0.37913 c -1.55488,0.78478 -0.0756,2.55486 -0.18105,3.67154 -0.0657,0.69665 -0.78768,0.94143 -0.98214,1.52797 -0.10632,0.321 0.0788,0.65315 0.4114,0.7275 1.52026,0.34024 2.21324,-3.01396 1.13109,-3.77761 l -0.12648,-0.88507 c 0.3295,-0.37221 1.01943,-1.21275 0.80627,-1.74124 -0.31749,-0.78706 -1.07925,-0.0921 -1.05914,0.47691 m 0.3793,0.25283 -0.3793,0.88505 0.12648,1.13791 c 0.48931,0.17272 0.4616,0.45454 0.25287,0.88505 0.52445,0.32266 0.52445,0.68881 0,1.01147 0.15904,0.59754 -0.0203,0.83738 -0.63218,0.88505 0.11782,1.36018 -1.50697,-0.009 0,-0.12649 -0.0444,-0.45289 0.0703,-0.62117 0.50575,-0.7586 v -1.01148 c -0.48047,-0.2659 -0.49096,-0.53823 -0.25287,-1.01148 -0.55668,-0.1765 -0.65533,-0.58539 -0.1265,-0.88504 -0.36615,-0.60348 -0.31079,-0.90894 0.37931,-1.13791 -0.2922,-1.28407 1.45779,-0.2779 0.12649,0.12649 m -1.89653,6.1953 c -0.27878,-1.12288 -0.31899,-1.87402 -0.29647,-3.03443 0.0162,-0.83435 -0.36161,-2.11816 -1.11289,-2.57952 -0.42128,-0.25869 -1.38181,-0.81904 -1.62481,-0.0591 -0.22,0.68767 1.12134,1.01628 1.38307,1.63859 0.64545,1.5344 -0.53811,3.47884 0.99176,4.68616 0.26487,0.20913 0.53013,0.5739 0.90716,0.54368 0.8863,-0.0714 0.37386,-1.09619 -0.24782,-1.19532 m -2.02293,-5.31025 c 0.67072,-0.17865 0.89513,0.10229 0.75859,0.75861 1.35158,0.22543 -0.37009,1.47991 -0.1265,0 l -0.63216,-0.63217 c -1.46246,0.30432 -0.39348,-1.42227 0,-0.12648 m 1.14928,1.88658 c 0.43608,-0.0681 0.50107,0.55948 0.10318,0.67352 -0.47576,0.13649 -0.55189,-0.60321 -0.10318,-0.67352 m -0.0119,1.78006 v 0.25286 c 0.36931,0.24176 0.34012,0.46731 0.25288,0.88505 l 0.50573,0.75861 c 1.33149,-0.0499 0.0866,1.40254 -0.1265,0.12648 -0.61179,-0.0476 -0.79121,-0.28751 -0.63214,-0.88505 -0.43481,-0.24035 -0.58553,-0.58299 -0.12648,-0.88503 v -0.25288 c -1.2311,-0.80639 1.3651,-0.81499 0.12648,0"
         id="path3792"
         sodipodi:nodetypes="cccccccccccccccccccccccccccccccccccccccccccccsccccccccccccccccccccccccccccccccccccccccccccccccccccccccccccccccccccccccccccccccccccccccccccccccccccscccccccccccccccccccccccccccccccccccccccccccccscccccccccccccccccccccsccccccccccccccccscccccccccccccccccccccc" /></clipPath><clipPath
       clipPathUnits="userSpaceOnUse"
       id="clipPath3794"><path
         style="fill:#282828;stroke:none;stroke-width:1.93702"
         d="m 948.51151,-945.90449 1.53074,5.35728 -3.82671,-3.06128 h -1.53068 l -0.76561,0.76564 3.06135,4.59201 -6.12275,-0.76564 v 3.06137 l 4.59202,0.76563 v 0.76564 l -5.35739,0.76563 c 0.96821,2.89089 2.55167,2.73162 5.35739,2.29601 l -3.82666,3.82664 1.53068,2.296 h 0.76561 l 3.82665,-2.296 -1.53061,5.35737 h 3.06134 l 2.29598,-3.82664 v 5.35728 l 4.59196,-5.35728 0.76561,3.82664 3.06135,-0.76564 -1.53062,-5.35737 4.59202,3.06137 0.76561,-3.06137 -3.82671,-1.53064 v -0.76563 h 5.35732 v -3.06128 h -4.59196 v -2.296 l 4.59196,-0.76564 -0.76561,-2.296 -5.35738,1.53064 3.06141,-3.82664 v -1.53073 l -6.1227,2.296 0.76567,-5.35728 h -3.06134 v 4.59201 h -2.29604 v -4.59201 h -3.06135 m 3.83053,9.88909 c 2.23786,-0.39413 2.67945,3.41751 0.56294,3.84083 -2.4444,0.48904 -2.96255,-3.41888 -0.56294,-3.84083 m 29.07885,-0.70508 0.76567,4.59201 -3.06128,-3.06128 -3.06135,0.76564 2.29598,4.592 -5.35727,-1.53072 v 3.06136 l 3.8266,2.29601 -4.59196,0.76563 v 3.06137 l 5.35732,-0.76564 -3.82671,3.06128 0.76567,2.296 6.12263,-2.296 -2.29592,4.592 3.82665,0.76564 v -4.59191 h 2.29598 v 4.59191 l 3.06129,-0.76564 -0.76567,-5.35737 4.59202,3.06137 0.76567,-0.76563 -3.06141,-5.35728 5.35739,0.76563 v -3.06127 h -4.59208 l 3.82665,-2.29601 -0.76567,-3.06136 -5.35739,0.76563 3.06129,-3.82664 -3.06129,-1.53064 -3.06134,3.82664 v -4.592 h -3.06129 m -29.84809,1.53073 v 2.29591 l 2.29598,-0.76564 v -0.76563 l -2.29598,-0.76564 m 33.67475,9.18374 v 0.76564 l -3.06135,1.53073 v -3.82674 l 3.06135,1.53073 m -26.02139,6.88819 0.76561,5.35728 -3.06134,-3.82664 h -1.53068 l -0.76561,0.76564 2.29598,4.592 -5.35732,-2.296 -0.76567,3.06128 3.0614,3.06136 -5.35738,-0.76563 4.59208,3.06137 -5.35739,2.296 c 1.4633,2.23544 2.82872,2.05908 5.35739,1.53064 l -3.82672,3.06136 0.76561,3.06137 5.35739,-1.53073 -3.06135,4.59201 0.76561,0.76563 5.35739,-3.06127 c -0.94678,2.65848 -1.66851,4.30943 0.76561,6.12264 l 3.06128,-4.592 -0.76561,4.592 0.76561,0.76564 h 1.53074 l 0.76567,-5.35728 2.29598,3.82664 h 3.06134 l -1.53073,-5.35737 6.12275,2.296 -3.06134,-5.35728 4.59195,2.296 0.76567,-3.06136 -3.82665,-2.29601 h 5.35739 v -2.296 h -4.59208 v -2.296 h 3.82671 v -3.06137 l -5.35739,0.76564 3.82666,-3.06137 v -1.53064 l -0.76561,-0.76563 -5.35739,2.296 2.29598,-5.35737 -2.29598,-0.76564 -3.82665,3.82673 1.53061,-4.592 -3.06134,-0.76564 v 4.59201 h -2.29598 v -4.59201 h -3.06129 m 1.64314,11.19112 c 4.42053,-1.71839 7.16203,5.01866 2.83629,6.70017 -4.42059,1.71838 -7.16197,-5.01867 -2.83629,-6.70017 m 0.82711,2.16809 c -1.49393,0.62011 -0.56295,3.01925 0.92838,2.34437 1.3653,-0.6183 0.52239,-2.94729 -0.92838,-2.34437 m -89.59023,392.06762 c 1.98145,5.31561 2.57001,9.70757 1.53067,15.30675 5.07725,-2.9359 7.44211,-17.69441 -1.53067,-15.30675 m 7.65337,-0.76564 -0.76537,16.07202 c 5.71017,-2.9001 7.52861,-9.29501 7.65336,-15.30665 l -6.88799,-0.76564 m -15.30674,3.06128 4.59202,14.54138 c 4.90503,-3.7339 3.55499,-17.25554 -4.59202,-14.54138 m 25.25602,-0.76564 -6.12263,14.54139 c 6.23516,-0.83344 9.89499,-6.03316 12.24532,-11.48002 l -6.12263,-3.06028 m -28.31736,3.82628 c -2.2409,5.34743 -0.52724,9.5257 4.59202,12.24538 -0.0424,-4.80389 -0.81513,-8.9988 -4.59202,-12.24538 m 36.73603,1.53073 -9.94934,12.24538 c 7.53321,-0.15998 18.14683,-4.1244 11.48002,-12.24538 h -1.53068 m -6.12269,15.30683 v 0.76564 c 6.48243,1.91617 19.66225,0.77558 14.54136,-8.41865 l -14.54136,7.65329 m 3.06135,4.59209 c 3.12181,5.10689 11.62081,3.82664 16.83734,3.82664 l -0.76525,-6.88801 -16.07203,3.06137 m 0.76536,5.35728 c 4.19403,6.67875 14.5513,12.75213 16.07198,1.53064 l -16.07198,-1.53064 m 0,5.35737 c 1.32475,5.45201 5.52718,6.9747 10.71466,6.12265 v -0.76564 l -10.71466,-5.35728 m 280.77762,156.56317 c -10.8853,1.73574 -4.7742,15.0051 -4.5476,21.52882 0.091,2.62124 -1.2238,4.99001 -1.575,7.55385 -8.3851,2.54549 2.2753,12.10753 3.8266,2.296 9.8031,-3.09888 0.5956,-16.88936 2.7009,-22.8605 1.2076,-3.42412 6.3989,-5.19972 6.7418,-8.55035 0.5702,-5.57468 -5.9367,-4.04024 -7.1467,0.0363 m 1.5307,1.53172 c -0.2016,2.60985 -0.52,3.75088 -3.0613,4.59199 l -0.7657,5.35738 v 0.76564 c 2.3221,2.30901 1.9708,3.96593 0.7657,6.88801 3.5166,1.17167 2.9212,3.74247 0,5.35737 1.572,3.12635 1.1954,5.06186 -2.296,6.12263 -0.6238,8.00157 -8.5979,0.4845 -0.7657,-0.76562 l 2.296,-4.59211 v -6.88792 c -2.919,-1.91869 -2.5914,-3.78008 -1.5306,-6.88809 -2.6029,-1.70284 -2.0718,-3.6491 0.7656,-4.59191 -0.5273,-3.43181 -0.1507,-5.93833 3.8267,-5.35737 1.4954,-9.37691 8.9636,1.8659 0.7656,0 m 29.8479,2.29491 c -9.412,4.75046 -0.4576,15.46512 -1.0959,22.22459 -0.3977,4.21695 -4.768,5.69869 -5.9451,9.2491 -0.6436,1.9431 0.477,3.95363 2.4903,4.40371 9.2024,2.05953 13.3972,-18.24409 6.8467,-22.86665 l -0.7656,-5.35747 c 1.9945,-2.25307 6.1708,-7.34105 4.8805,-10.54009 -1.9218,-4.76422 -6.5329,-0.55774 -6.4112,2.88681 m 2.296,1.53046 -2.296,5.35738 0.7656,6.888 c 2.9619,1.04549 2.7942,2.75141 1.5307,5.35736 3.1746,1.95314 3.1746,4.16952 0,6.12265 0.9627,3.61702 -0.1229,5.06883 -3.8267,5.35737 0.7132,8.23343 -9.122,-0.0545 0,-0.76564 -0.2688,-2.74146 0.4255,-3.76011 3.0614,-4.592 v -6.12265 c -2.9084,-1.60954 -2.9719,-3.25806 -1.5307,-6.12273 -3.3697,-1.06836 -3.9668,-3.54343 -0.7657,-5.35727 -2.2164,-3.653 -1.8813,-5.50201 2.296,-6.88802 -1.7687,-7.77277 8.8243,-1.68222 0.7657,0.76564 m -11.4801,37.50142 c -1.6875,-6.797 -1.9309,-11.34381 -1.7946,-18.36804 0.098,-5.05047 -2.1889,-12.82164 -6.7365,-15.61435 -2.5501,-1.56589 -8.3644,-4.95782 -9.8353,-0.35792 -1.3317,4.16263 6.7877,6.15175 8.372,9.91873 3.907,9.28805 -3.2573,21.05813 6.0033,28.3663 1.6033,1.26587 3.209,3.47392 5.4912,3.29097 5.365,-0.43208 2.2631,-6.63546 -1.5001,-7.23549 m -12.2452,-32.14404 c 4.06,-1.08138 5.4184,0.6192 4.5919,4.59201 8.1814,1.36459 -2.2402,8.95821 -0.7657,0 l -3.8266,-3.82665 c -8.8526,1.84215 -2.3818,-8.60928 0,-0.76562 m 6.9568,11.4199 c 2.6397,-0.41223 3.0331,3.38659 0.6246,4.07694 -2.8799,0.8262 -3.3407,-3.65137 -0.6246,-4.07694 m -0.072,10.77503 v 1.53063 c 2.2355,1.46338 2.0588,2.8287 1.5307,5.35737 l 3.0613,4.592 c 8.0598,-0.30193 0.5242,8.48989 -0.7657,0.76564 -3.7033,-0.28837 -4.7894,-1.74035 -3.8265,-5.35736 -2.632,-1.45489 -3.5443,-3.52897 -0.7656,-5.35728 v -1.53074 c -7.4521,-4.88126 8.2632,-4.93333 0.7656,0"
         id="path3796"
         sodipodi:nodetypes="cccccccccccccccccccccccccccccccccccccccccccccsccccccccccccccccccccccccccccccccccccccccccccccccccccccccccccccccccccccccccccccccccccccccccccccccccccscccccccccccccccccccccccccccccccccccccccccccccscccccccccccccccccccccsccccccccccccccccscccccccccccccccccccccc" /></clipPath><clipPath
       clipPathUnits="userSpaceOnUse"
       id="clipPath3794-5"><path
         style="fill:#282828;stroke:none;stroke-width:1.93702"
         d="m 948.51151,-945.90449 1.53074,5.35728 -3.82671,-3.06128 h -1.53068 l -0.76561,0.76564 3.06135,4.59201 -6.12275,-0.76564 v 3.06137 l 4.59202,0.76563 v 0.76564 l -5.35739,0.76563 c 0.96821,2.89089 2.55167,2.73162 5.35739,2.29601 l -3.82666,3.82664 1.53068,2.296 h 0.76561 l 3.82665,-2.296 -1.53061,5.35737 h 3.06134 l 2.29598,-3.82664 v 5.35728 l 4.59196,-5.35728 0.76561,3.82664 3.06135,-0.76564 -1.53062,-5.35737 4.59202,3.06137 0.76561,-3.06137 -3.82671,-1.53064 v -0.76563 h 5.35732 v -3.06128 h -4.59196 v -2.296 l 4.59196,-0.76564 -0.76561,-2.296 -5.35738,1.53064 3.06141,-3.82664 v -1.53073 l -6.1227,2.296 0.76567,-5.35728 h -3.06134 v 4.59201 h -2.29604 v -4.59201 h -3.06135 m 3.83053,9.88909 c 2.23786,-0.39413 2.67945,3.41751 0.56294,3.84083 -2.4444,0.48904 -2.96255,-3.41888 -0.56294,-3.84083 m 29.07885,-0.70508 0.76567,4.59201 -3.06128,-3.06128 -3.06135,0.76564 2.29598,4.592 -5.35727,-1.53072 v 3.06136 l 3.8266,2.29601 -4.59196,0.76563 v 3.06137 l 5.35732,-0.76564 -3.82671,3.06128 0.76567,2.296 6.12263,-2.296 -2.29592,4.592 3.82665,0.76564 v -4.59191 h 2.29598 v 4.59191 l 3.06129,-0.76564 -0.76567,-5.35737 4.59202,3.06137 0.76567,-0.76563 -3.06141,-5.35728 5.35739,0.76563 v -3.06127 h -4.59208 l 3.82665,-2.29601 -0.76567,-3.06136 -5.35739,0.76563 3.06129,-3.82664 -3.06129,-1.53064 -3.06134,3.82664 v -4.592 h -3.06129 m -29.84809,1.53073 v 2.29591 l 2.29598,-0.76564 v -0.76563 l -2.29598,-0.76564 m 33.67475,9.18374 v 0.76564 l -3.06135,1.53073 v -3.82674 l 3.06135,1.53073 m -26.02139,6.88819 0.76561,5.35728 -3.06134,-3.82664 h -1.53068 l -0.76561,0.76564 2.29598,4.592 -5.35732,-2.296 -0.76567,3.06128 3.0614,3.06136 -5.35738,-0.76563 4.59208,3.06137 -5.35739,2.296 c 1.4633,2.23544 2.82872,2.05908 5.35739,1.53064 l -3.82672,3.06136 0.76561,3.06137 5.35739,-1.53073 -3.06135,4.59201 0.76561,0.76563 5.35739,-3.06127 c -0.94678,2.65848 -1.66851,4.30943 0.76561,6.12264 l 3.06128,-4.592 -0.76561,4.592 0.76561,0.76564 h 1.53074 l 0.76567,-5.35728 2.29598,3.82664 h 3.06134 l -1.53073,-5.35737 6.12275,2.296 -3.06134,-5.35728 4.59195,2.296 0.76567,-3.06136 -3.82665,-2.29601 h 5.35739 v -2.296 h -4.59208 v -2.296 h 3.82671 v -3.06137 l -5.35739,0.76564 3.82666,-3.06137 v -1.53064 l -0.76561,-0.76563 -5.35739,2.296 2.29598,-5.35737 -2.29598,-0.76564 -3.82665,3.82673 1.53061,-4.592 -3.06134,-0.76564 v 4.59201 h -2.29598 v -4.59201 h -3.06129 m 1.64314,11.19112 c 4.42053,-1.71839 7.16203,5.01866 2.83629,6.70017 -4.42059,1.71838 -7.16197,-5.01867 -2.83629,-6.70017 m 0.82711,2.16809 c -1.49393,0.62011 -0.56295,3.01925 0.92838,2.34437 1.3653,-0.6183 0.52239,-2.94729 -0.92838,-2.34437 m -89.59023,392.06762 c 1.98145,5.31561 2.57001,9.70757 1.53067,15.30675 5.07725,-2.9359 7.44211,-17.69441 -1.53067,-15.30675 m 7.65337,-0.76564 -0.76537,16.07202 c 5.71017,-2.9001 7.52861,-9.29501 7.65336,-15.30665 l -6.88799,-0.76564 m -15.30674,3.06128 4.59202,14.54138 c 4.90503,-3.7339 3.55499,-17.25554 -4.59202,-14.54138 m 25.25602,-0.76564 -6.12263,14.54139 c 6.23516,-0.83344 9.89499,-6.03316 12.24532,-11.48002 l -6.12263,-3.06028 m -28.31736,3.82628 c -2.2409,5.34743 -0.52724,9.5257 4.59202,12.24538 -0.0424,-4.80389 -0.81513,-8.9988 -4.59202,-12.24538 m 36.73603,1.53073 -9.94934,12.24538 c 7.53321,-0.15998 18.14683,-4.1244 11.48002,-12.24538 h -1.53068 m -6.12269,15.30683 v 0.76564 c 6.48243,1.91617 19.66225,0.77558 14.54136,-8.41865 l -14.54136,7.65329 m 3.06135,4.59209 c 3.12181,5.10689 11.62081,3.82664 16.83734,3.82664 l -0.76525,-6.88801 -16.07203,3.06137 m 0.76536,5.35728 c 4.19403,6.67875 14.5513,12.75213 16.07198,1.53064 l -16.07198,-1.53064 m 0,5.35737 c 1.32475,5.45201 5.52718,6.9747 10.71466,6.12265 v -0.76564 l -10.71466,-5.35728 m 280.77762,156.56317 c -10.8853,1.73574 -4.7742,15.0051 -4.5476,21.52882 0.091,2.62124 -1.2238,4.99001 -1.575,7.55385 -8.3851,2.54549 2.2753,12.10753 3.8266,2.296 9.8031,-3.09888 0.5956,-16.88936 2.7009,-22.8605 1.2076,-3.42412 6.3989,-5.19972 6.7418,-8.55035 0.5702,-5.57468 -5.9367,-4.04024 -7.1467,0.0363 m 1.5307,1.53172 c -0.2016,2.60985 -0.52,3.75088 -3.0613,4.59199 l -0.7657,5.35738 v 0.76564 c 2.3221,2.30901 1.9708,3.96593 0.7657,6.88801 3.5166,1.17167 2.9212,3.74247 0,5.35737 1.572,3.12635 1.1954,5.06186 -2.296,6.12263 -0.6238,8.00157 -8.5979,0.4845 -0.7657,-0.76562 l 2.296,-4.59211 v -6.88792 c -2.919,-1.91869 -2.5914,-3.78008 -1.5306,-6.88809 -2.6029,-1.70284 -2.0718,-3.6491 0.7656,-4.59191 -0.5273,-3.43181 -0.1507,-5.93833 3.8267,-5.35737 1.4954,-9.37691 8.9636,1.8659 0.7656,0 m 29.8479,2.29491 c -9.412,4.75046 -0.4576,15.46512 -1.0959,22.22459 -0.3977,4.21695 -4.768,5.69869 -5.9451,9.2491 -0.6436,1.9431 0.477,3.95363 2.4903,4.40371 9.2024,2.05953 13.3972,-18.24409 6.8467,-22.86665 l -0.7656,-5.35747 c 1.9945,-2.25307 6.1708,-7.34105 4.8805,-10.54009 -1.9218,-4.76422 -6.5329,-0.55774 -6.4112,2.88681 m 2.296,1.53046 -2.296,5.35738 0.7656,6.888 c 2.9619,1.04549 2.7942,2.75141 1.5307,5.35736 3.1746,1.95314 3.1746,4.16952 0,6.12265 0.9627,3.61702 -0.1229,5.06883 -3.8267,5.35737 0.7132,8.23343 -9.122,-0.0545 0,-0.76564 -0.2688,-2.74146 0.4255,-3.76011 3.0614,-4.592 v -6.12265 c -2.9084,-1.60954 -2.9719,-3.25806 -1.5307,-6.12273 -3.3697,-1.06836 -3.9668,-3.54343 -0.7657,-5.35727 -2.2164,-3.653 -1.8813,-5.50201 2.296,-6.88802 -1.7687,-7.77277 8.8243,-1.68222 0.7657,0.76564 m -11.4801,37.50142 c -1.6875,-6.797 -1.9309,-11.34381 -1.7946,-18.36804 0.098,-5.05047 -2.1889,-12.82164 -6.7365,-15.61435 -2.5501,-1.56589 -8.3644,-4.95782 -9.8353,-0.35792 -1.3317,4.16263 6.7877,6.15175 8.372,9.91873 3.907,9.28805 -3.2573,21.05813 6.0033,28.3663 1.6033,1.26587 3.209,3.47392 5.4912,3.29097 5.365,-0.43208 2.2631,-6.63546 -1.5001,-7.23549 m -12.2452,-32.14404 c 4.06,-1.08138 5.4184,0.6192 4.5919,4.59201 8.1814,1.36459 -2.2402,8.95821 -0.7657,0 l -3.8266,-3.82665 c -8.8526,1.84215 -2.3818,-8.60928 0,-0.76562 m 6.9568,11.4199 c 2.6397,-0.41223 3.0331,3.38659 0.6246,4.07694 -2.8799,0.8262 -3.3407,-3.65137 -0.6246,-4.07694 m -0.072,10.77503 v 1.53063 c 2.2355,1.46338 2.0588,2.8287 1.5307,5.35737 l 3.0613,4.592 c 8.0598,-0.30193 0.5242,8.48989 -0.7657,0.76564 -3.7033,-0.28837 -4.7894,-1.74035 -3.8265,-5.35736 -2.632,-1.45489 -3.5443,-3.52897 -0.7656,-5.35728 v -1.53074 c -7.4521,-4.88126 8.2632,-4.93333 0.7656,0"
         id="path3796-2"
         sodipodi:nodetypes="cccccccccccccccccccccccccccccccccccccccccccccsccccccccccccccccccccccccccccccccccccccccccccccccccccccccccccccccccccccccccccccccccccccccccccccccccccscccccccccccccccccccccccccccccccccccccccccccccscccccccccccccccccccccsccccccccccccccccscccccccccccccccccccccc" /></clipPath><clipPath
       clipPathUnits="userSpaceOnUse"
       id="clipPath3794-0"><path
         style="fill:#282828;stroke:none;stroke-width:1.93702"
         d="m 948.51151,-945.90449 1.53074,5.35728 -3.82671,-3.06128 h -1.53068 l -0.76561,0.76564 3.06135,4.59201 -6.12275,-0.76564 v 3.06137 l 4.59202,0.76563 v 0.76564 l -5.35739,0.76563 c 0.96821,2.89089 2.55167,2.73162 5.35739,2.29601 l -3.82666,3.82664 1.53068,2.296 h 0.76561 l 3.82665,-2.296 -1.53061,5.35737 h 3.06134 l 2.29598,-3.82664 v 5.35728 l 4.59196,-5.35728 0.76561,3.82664 3.06135,-0.76564 -1.53062,-5.35737 4.59202,3.06137 0.76561,-3.06137 -3.82671,-1.53064 v -0.76563 h 5.35732 v -3.06128 h -4.59196 v -2.296 l 4.59196,-0.76564 -0.76561,-2.296 -5.35738,1.53064 3.06141,-3.82664 v -1.53073 l -6.1227,2.296 0.76567,-5.35728 h -3.06134 v 4.59201 h -2.29604 v -4.59201 h -3.06135 m 3.83053,9.88909 c 2.23786,-0.39413 2.67945,3.41751 0.56294,3.84083 -2.4444,0.48904 -2.96255,-3.41888 -0.56294,-3.84083 m 29.07885,-0.70508 0.76567,4.59201 -3.06128,-3.06128 -3.06135,0.76564 2.29598,4.592 -5.35727,-1.53072 v 3.06136 l 3.8266,2.29601 -4.59196,0.76563 v 3.06137 l 5.35732,-0.76564 -3.82671,3.06128 0.76567,2.296 6.12263,-2.296 -2.29592,4.592 3.82665,0.76564 v -4.59191 h 2.29598 v 4.59191 l 3.06129,-0.76564 -0.76567,-5.35737 4.59202,3.06137 0.76567,-0.76563 -3.06141,-5.35728 5.35739,0.76563 v -3.06127 h -4.59208 l 3.82665,-2.29601 -0.76567,-3.06136 -5.35739,0.76563 3.06129,-3.82664 -3.06129,-1.53064 -3.06134,3.82664 v -4.592 h -3.06129 m -29.84809,1.53073 v 2.29591 l 2.29598,-0.76564 v -0.76563 l -2.29598,-0.76564 m 33.67475,9.18374 v 0.76564 l -3.06135,1.53073 v -3.82674 l 3.06135,1.53073 m -26.02139,6.88819 0.76561,5.35728 -3.06134,-3.82664 h -1.53068 l -0.76561,0.76564 2.29598,4.592 -5.35732,-2.296 -0.76567,3.06128 3.0614,3.06136 -5.35738,-0.76563 4.59208,3.06137 -5.35739,2.296 c 1.4633,2.23544 2.82872,2.05908 5.35739,1.53064 l -3.82672,3.06136 0.76561,3.06137 5.35739,-1.53073 -3.06135,4.59201 0.76561,0.76563 5.35739,-3.06127 c -0.94678,2.65848 -1.66851,4.30943 0.76561,6.12264 l 3.06128,-4.592 -0.76561,4.592 0.76561,0.76564 h 1.53074 l 0.76567,-5.35728 2.29598,3.82664 h 3.06134 l -1.53073,-5.35737 6.12275,2.296 -3.06134,-5.35728 4.59195,2.296 0.76567,-3.06136 -3.82665,-2.29601 h 5.35739 v -2.296 h -4.59208 v -2.296 h 3.82671 v -3.06137 l -5.35739,0.76564 3.82666,-3.06137 v -1.53064 l -0.76561,-0.76563 -5.35739,2.296 2.29598,-5.35737 -2.29598,-0.76564 -3.82665,3.82673 1.53061,-4.592 -3.06134,-0.76564 v 4.59201 h -2.29598 v -4.59201 h -3.06129 m 1.64314,11.19112 c 4.42053,-1.71839 7.16203,5.01866 2.83629,6.70017 -4.42059,1.71838 -7.16197,-5.01867 -2.83629,-6.70017 m 0.82711,2.16809 c -1.49393,0.62011 -0.56295,3.01925 0.92838,2.34437 1.3653,-0.6183 0.52239,-2.94729 -0.92838,-2.34437 m -89.59023,392.06762 c 1.98145,5.31561 2.57001,9.70757 1.53067,15.30675 5.07725,-2.9359 7.44211,-17.69441 -1.53067,-15.30675 m 7.65337,-0.76564 -0.76537,16.07202 c 5.71017,-2.9001 7.52861,-9.29501 7.65336,-15.30665 l -6.88799,-0.76564 m -15.30674,3.06128 4.59202,14.54138 c 4.90503,-3.7339 3.55499,-17.25554 -4.59202,-14.54138 m 25.25602,-0.76564 -6.12263,14.54139 c 6.23516,-0.83344 9.89499,-6.03316 12.24532,-11.48002 l -6.12263,-3.06028 m -28.31736,3.82628 c -2.2409,5.34743 -0.52724,9.5257 4.59202,12.24538 -0.0424,-4.80389 -0.81513,-8.9988 -4.59202,-12.24538 m 36.73603,1.53073 -9.94934,12.24538 c 7.53321,-0.15998 18.14683,-4.1244 11.48002,-12.24538 h -1.53068 m -6.12269,15.30683 v 0.76564 c 6.48243,1.91617 19.66225,0.77558 14.54136,-8.41865 l -14.54136,7.65329 m 3.06135,4.59209 c 3.12181,5.10689 11.62081,3.82664 16.83734,3.82664 l -0.76525,-6.88801 -16.07203,3.06137 m 0.76536,5.35728 c 4.19403,6.67875 14.5513,12.75213 16.07198,1.53064 l -16.07198,-1.53064 m 0,5.35737 c 1.32475,5.45201 5.52718,6.9747 10.71466,6.12265 v -0.76564 l -10.71466,-5.35728 m 280.77762,156.56317 c -10.8853,1.73574 -4.7742,15.0051 -4.5476,21.52882 0.091,2.62124 -1.2238,4.99001 -1.575,7.55385 -8.3851,2.54549 2.2753,12.10753 3.8266,2.296 9.8031,-3.09888 0.5956,-16.88936 2.7009,-22.8605 1.2076,-3.42412 6.3989,-5.19972 6.7418,-8.55035 0.5702,-5.57468 -5.9367,-4.04024 -7.1467,0.0363 m 1.5307,1.53172 c -0.2016,2.60985 -0.52,3.75088 -3.0613,4.59199 l -0.7657,5.35738 v 0.76564 c 2.3221,2.30901 1.9708,3.96593 0.7657,6.88801 3.5166,1.17167 2.9212,3.74247 0,5.35737 1.572,3.12635 1.1954,5.06186 -2.296,6.12263 -0.6238,8.00157 -8.5979,0.4845 -0.7657,-0.76562 l 2.296,-4.59211 v -6.88792 c -2.919,-1.91869 -2.5914,-3.78008 -1.5306,-6.88809 -2.6029,-1.70284 -2.0718,-3.6491 0.7656,-4.59191 -0.5273,-3.43181 -0.1507,-5.93833 3.8267,-5.35737 1.4954,-9.37691 8.9636,1.8659 0.7656,0 m 29.8479,2.29491 c -9.412,4.75046 -0.4576,15.46512 -1.0959,22.22459 -0.3977,4.21695 -4.768,5.69869 -5.9451,9.2491 -0.6436,1.9431 0.477,3.95363 2.4903,4.40371 9.2024,2.05953 13.3972,-18.24409 6.8467,-22.86665 l -0.7656,-5.35747 c 1.9945,-2.25307 6.1708,-7.34105 4.8805,-10.54009 -1.9218,-4.76422 -6.5329,-0.55774 -6.4112,2.88681 m 2.296,1.53046 -2.296,5.35738 0.7656,6.888 c 2.9619,1.04549 2.7942,2.75141 1.5307,5.35736 3.1746,1.95314 3.1746,4.16952 0,6.12265 0.9627,3.61702 -0.1229,5.06883 -3.8267,5.35737 0.7132,8.23343 -9.122,-0.0545 0,-0.76564 -0.2688,-2.74146 0.4255,-3.76011 3.0614,-4.592 v -6.12265 c -2.9084,-1.60954 -2.9719,-3.25806 -1.5307,-6.12273 -3.3697,-1.06836 -3.9668,-3.54343 -0.7657,-5.35727 -2.2164,-3.653 -1.8813,-5.50201 2.296,-6.88802 -1.7687,-7.77277 8.8243,-1.68222 0.7657,0.76564 m -11.4801,37.50142 c -1.6875,-6.797 -1.9309,-11.34381 -1.7946,-18.36804 0.098,-5.05047 -2.1889,-12.82164 -6.7365,-15.61435 -2.5501,-1.56589 -8.3644,-4.95782 -9.8353,-0.35792 -1.3317,4.16263 6.7877,6.15175 8.372,9.91873 3.907,9.28805 -3.2573,21.05813 6.0033,28.3663 1.6033,1.26587 3.209,3.47392 5.4912,3.29097 5.365,-0.43208 2.2631,-6.63546 -1.5001,-7.23549 m -12.2452,-32.14404 c 4.06,-1.08138 5.4184,0.6192 4.5919,4.59201 8.1814,1.36459 -2.2402,8.95821 -0.7657,0 l -3.8266,-3.82665 c -8.8526,1.84215 -2.3818,-8.60928 0,-0.76562 m 6.9568,11.4199 c 2.6397,-0.41223 3.0331,3.38659 0.6246,4.07694 -2.8799,0.8262 -3.3407,-3.65137 -0.6246,-4.07694 m -0.072,10.77503 v 1.53063 c 2.2355,1.46338 2.0588,2.8287 1.5307,5.35737 l 3.0613,4.592 c 8.0598,-0.30193 0.5242,8.48989 -0.7657,0.76564 -3.7033,-0.28837 -4.7894,-1.74035 -3.8265,-5.35736 -2.632,-1.45489 -3.5443,-3.52897 -0.7656,-5.35728 v -1.53074 c -7.4521,-4.88126 8.2632,-4.93333 0.7656,0"
         id="path3796-7"
         sodipodi:nodetypes="cccccccccccccccccccccccccccccccccccccccccccccsccccccccccccccccccccccccccccccccccccccccccccccccccccccccccccccccccccccccccccccccccccccccccccccccccccscccccccccccccccccccccccccccccccccccccccccccccscccccccccccccccccccccsccccccccccccccccscccccccccccccccccccccc" /></clipPath></defs><g
     inkscape:label="Calque 1"
     inkscape:groupmode="layer"
     id="layer1"><g
       id="layer1-5"
       inkscape:label="Calque 1"
       transform="matrix(0.04370965,0,0,0.04370965,-0.72052787,36.546021)"><g
         id="g9312"
         transform="matrix(0.81695318,0,0,0.81695318,-427.16856,-913.66932)"><g
           id="g10138"
           transform="translate(543.94,73.352)"><circle
             id="path8784"
             style="fill:#ffffff;stroke:#000000;stroke-width:3.0134"
             transform="matrix(0.99557,0,0,0.99557,292.08,-174.21)"
             cx="77.85714"
             cy="568.79077"
             r="322.14285" /><circle
             id="path8784-6"
             style="fill:none;stroke:#ff0000;stroke-width:110.5"
             transform="matrix(0.8145,0,0,0.8145,306.18,-71.219)"
             cx="77.85714"
             cy="568.79077"
             r="322.14285" /></g></g><g
         inkscape:label="Layer 1"
         id="layer1-1"
         transform="matrix(4.2948681,0,0,4.5011401,173.47229,-5126.5144)"><ellipse
           style="fill:#ffffff;fill-opacity:1;fill-rule:nonzero;stroke:#ffffff;stroke-width:0.400558;stroke-miterlimit:4;stroke-dasharray:none;stroke-opacity:1"
           id="path3973"
           transform="matrix(1.1425735,0,0,1.3637168,10.329957,986.41778)"
           cx="20.625"
           cy="16.946428"
           rx="6.6071429"
           ry="5.5357141" /></g><path
         style="fill:#282828;stroke:none;stroke-width:1.93702"
         d="m 872.10783,-513.69081 c 1.98145,5.31561 2.57,9.70757 1.53068,15.30675 5.07722,-2.9359 7.44212,-17.69441 -1.53068,-15.30675 m 7.65336,-0.76564 -0.76536,16.07202 c 5.71017,-2.9001 7.52857,-9.29501 7.65333,-15.30665 l -6.88799,-0.76564 m -15.3067,3.06128 4.59199,14.54138 c 4.90504,-3.7339 3.555,-17.25554 -4.59199,-14.54138 m 25.25603,-0.76564 -6.12268,14.54139 c 6.23518,-0.83344 9.89501,-6.03316 12.24536,-11.48002 l -6.12267,-3.06028 m -28.31736,3.82628 c -2.24089,5.34743 -0.52727,9.5257 4.59202,12.24538 -0.0407,-4.80389 -0.81508,-8.9988 -4.59202,-12.24538 m 36.73605,1.53073 -9.94933,12.24538 c 7.53318,-0.16 18.14682,-4.1244 11.48001,-12.24538 h -1.53068 m -6.12268,15.30683 v 0.76564 c 6.4824,1.91617 19.66222,0.77558 14.54135,-8.41865 l -14.54135,7.65329 m 3.06134,4.59209 c 3.1218,5.10689 11.62084,3.82664 16.83735,3.82664 l -0.76527,-6.88801 -16.07205,3.06137 m 0.76537,5.35728 c 4.19402,6.67875 14.55129,12.75213 16.07201,1.53064 l -16.07201,-1.53064 m 0,5.35737 c 1.32478,5.45201 5.52723,6.9747 10.71467,6.12265 v -0.76564 l -10.71467,-5.35728"
         id="path3347"
         sodipodi:nodetypes="cccccccccccccccccccccccccccccccccccc"
         clip-path="url(#clipPath3794)"
         transform="matrix(1.0236839,0,0,0.94211943,-688.92669,56.630424)" /><path
         style="fill:#282828;stroke:none;stroke-width:1.93702"
         d="m 1176.6109,-319.62623 c -10.8853,1.73574 -4.7742,15.0051 -4.5476,21.52882 0.091,2.62124 -1.2238,4.99001 -1.575,7.55385 -8.3851,2.54549 2.2753,12.10753 3.8266,2.296 9.8031,-3.09888 0.5957,-16.88936 2.7009,-22.8605 1.2076,-3.42412 6.3989,-5.19972 6.7418,-8.55035 0.5704,-5.57468 -5.9367,-4.04024 -7.1467,0.0362 m 1.5307,1.53172 c -0.2016,2.60985 -0.5197,3.75089 -3.0613,4.592 l -0.7657,5.35738 v 0.76563 c 2.3221,2.30902 1.9708,3.96594 0.7657,6.88801 3.5166,1.17168 2.9212,3.74248 0,5.35737 1.572,3.12636 1.1954,5.06187 -2.296,6.12264 -0.6238,8.00157 -8.5979,0.48451 -0.7657,-0.76563 l 2.296,-4.5921 v -6.88792 c -2.919,-1.9187 -2.5914,-3.78008 -1.5306,-6.8881 -2.6029,-1.70283 -2.0718,-3.6491 0.7656,-4.59191 -0.527,-3.4318 -0.1509,-5.93833 3.8267,-5.35737 1.4954,-9.37691 8.9636,1.86591 0.7656,0 m 29.8479,2.29492 c -9.412,4.75046 -0.4574,15.46511 -1.0959,22.22458 -0.3977,4.21696 -4.768,5.6987 -5.9451,9.2491 -0.6436,1.9431 0.4773,3.95364 2.4903,4.40371 9.2024,2.05953 13.3972,-18.24409 6.8467,-22.86665 l -0.7656,-5.35746 c 1.9945,-2.25307 6.1708,-7.34106 4.8805,-10.5401 -1.9218,-4.76421 -6.5329,-0.55773 -6.4112,2.88682 m 2.296,1.53046 -2.296,5.35737 0.7656,6.888 c 2.9619,1.0455 2.7942,2.75141 1.5307,5.35737 3.1746,1.95314 3.1746,4.16951 0,6.12265 0.9627,3.61702 -0.123,5.06883 -3.8267,5.35737 0.7132,8.23343 -9.122,-0.0542 0,-0.76564 -0.2685,-2.74146 0.4258,-3.76011 3.0614,-4.592 v -6.12265 c -2.9084,-1.60955 -2.9719,-3.25806 -1.5307,-6.12273 -3.3697,-1.06837 -3.9668,-3.54344 -0.7657,-5.35728 -2.2164,-3.653 -1.8813,-5.502 2.296,-6.88801 -1.7687,-7.77278 8.8243,-1.68223 0.7657,0.76564 m -11.4801,37.50141 c -1.6875,-6.79699 -1.9309,-11.3438 -1.7946,-18.36803 0.098,-5.05048 -2.1889,-12.82164 -6.7365,-15.61435 -2.5501,-1.5659 -8.3644,-4.95783 -9.8353,-0.35796 -1.3317,4.16263 6.7877,6.15175 8.372,9.91873 3.907,9.28805 -3.2573,21.05814 6.0033,28.3663 1.6033,1.26588 3.209,3.47393 5.4912,3.29097 5.365,-0.43208 2.2631,-6.63545 -1.5001,-7.23548 m -12.2452,-32.14404 c 4.06,-1.08138 5.4184,0.61919 4.5919,4.592 8.1814,1.36459 -2.2402,8.95821 -0.7657,0 l -3.8266,-3.82664 c -8.8526,1.84214 -2.3818,-8.60929 0,-0.76563 m 6.9568,11.4199 c 2.6397,-0.4122 3.0331,3.3866 0.6246,4.07694 -2.8799,0.8262 -3.3407,-3.65137 -0.6246,-4.07694 m -0.072,10.77503 v 1.53064 c 2.2355,1.46338 2.0588,2.82869 1.5307,5.35737 l 3.0613,4.592 c 8.0598,-0.30191 0.5243,8.48988 -0.7657,0.76564 -3.7033,-0.28836 -4.7894,-1.74035 -3.8265,-5.35737 -2.632,-1.45489 -3.5443,-3.52897 -0.7656,-5.35728 v -1.53073 c -7.4521,-4.88126 8.2632,-4.93333 0.7656,0"
         id="path3347-3"
         sodipodi:nodetypes="cccccscccccccccccccccccccccsccccccccccccccccscccccccccccccccccccccc"
         clip-path="url(#clipPath3794-5)"
         transform="matrix(1.0236839,0,0,0.94211943,-928.8954,-123.75225)" /><path
         style="fill:#282828;stroke:none;stroke-width:1.93702"
         d="m 948.51151,-945.90449 1.53073,5.35728 -3.82673,-3.06128 h -1.53064 l -0.76564,0.76564 3.06137,4.59201 -6.12274,-0.76564 v 3.06137 l 4.59201,0.76563 v 0.76564 l -5.35737,0.76563 c 0.96821,2.89089 2.55164,2.73162 5.35737,2.29601 l -3.82664,3.82664 1.53064,2.296 h 0.76563 l 3.82664,-2.296 -1.53063,5.35737 h 3.06136 l 2.29601,-3.82664 v 5.35728 l 4.59191,-5.35728 0.76564,3.82664 3.06136,-0.76564 -1.53063,-5.35737 4.592,3.06137 0.76564,-3.06137 -3.82674,-1.53064 v -0.76563 h 5.35737 v -3.06128 h -4.592 v -2.296 l 4.592,-0.76564 -0.76563,-2.296 -5.35737,1.53064 3.06137,-3.82664 v -1.53073 l -6.12265,2.296 0.76564,-5.35728 h -3.06137 v 4.59201 h -2.296 v -4.59201 h -3.06137 m 3.83053,9.88909 c 2.23788,-0.39412 2.67945,3.41751 0.56315,3.84083 -2.44443,0.48903 -2.96256,-3.41888 -0.56315,-3.84083 m 29.07887,-0.70508 0.76564,4.59201 -3.06128,-3.06128 -3.06136,0.76564 2.296,4.592 -5.35728,-1.53072 v 3.06136 l 3.82664,2.29601 -4.592,0.76563 v 3.06137 l 5.35737,-0.76564 -3.82674,3.06128 0.76564,2.296 6.12264,-2.296 -2.29591,4.592 3.82664,0.76564 v -4.59191 h 2.296 v 4.59191 l 3.06128,-0.76564 -0.76563,-5.35737 4.592,3.06137 0.76564,-0.76563 -3.06137,-5.35728 5.35737,0.76563 v -3.06127 h -4.5921 l 3.82665,-2.29601 -0.76564,-3.06136 -5.35737,0.76563 3.06128,-3.82664 -3.06128,-1.53064 -3.06137,3.82664 v -4.592 h -3.06127 m -29.84813,1.53073 v 2.29591 l 2.296,-0.76564 v -0.76563 l -2.296,-0.76564 m 33.67477,9.18374 v 0.76564 l -3.06137,1.53073 v -3.82674 l 3.06137,1.53073 m -26.0214,6.88819 0.76564,5.35728 -3.06137,-3.82664 h -1.53064 l -0.76563,0.76564 2.296,4.592 -5.35737,-2.296 -0.76564,3.06128 3.06137,3.06136 -5.35737,-0.76563 4.5921,3.06137 -5.35737,2.296 c 1.46329,2.23544 2.82869,2.05908 5.35737,1.53064 l -3.82674,3.06136 0.76564,3.06137 5.35737,-1.53073 -3.06137,4.59201 0.76564,0.76563 5.35737,-3.06127 c -0.94679,2.65848 -1.66849,4.30943 0.76563,6.12264 l 3.06128,-4.592 -0.76563,4.592 0.76563,0.76564 h 1.53073 l 0.76564,-5.35728 2.296,3.82664 h 3.06137 l -1.53073,-5.35737 6.12273,2.296 -3.06137,-5.35728 4.59201,2.296 0.76564,-3.06136 -3.82665,-2.29601 h 5.35737 v -2.296 h -4.59209 v -2.296 h 3.82673 v -3.06137 l -5.35737,0.76564 3.82664,-3.06137 v -1.53064 l -0.76563,-0.76563 -5.35738,2.296 2.29601,-5.35737 -2.29601,-0.76564 -3.82664,3.82673 1.53064,-4.592 -3.06137,-0.76564 v 4.59201 h -2.296 v -4.59201 h -3.06127 m 1.64317,11.19112 c 4.42053,-1.71839 7.162,5.01866 2.83629,6.70017 -4.42062,1.71838 -7.16199,-5.01867 -2.83629,-6.70017 m 0.82711,2.16809 c -1.49394,0.62011 -0.56316,3.01925 0.92834,2.34437 1.36531,-0.6183 0.52248,-2.94729 -0.92834,-2.34437"
         id="path3347-5"
         sodipodi:nodetypes="cccccccccccccccccccccccccccccccccccccccccccccsccccccccccccccccccccccccccccccccccccccccccccccccccccccccccccccccccccccccccccccccccccccccccccccccccccscccc"
         clip-path="url(#clipPath3794-0)"
         transform="matrix(1.0236839,0,0,0.94211943,-623.5744,460.22022)" /><g
         id="g3565"
         transform="matrix(6.0532018,0,0,6.0532018,864.86323,-2707.9556)"
         clip-path="url(#clipPath3790)">
	
	
<g
   id="g3606"
   transform="matrix(-0.39967145,0,0,0.39967145,-47.896144,195.59032)"><g
     id="g3563">
		
		
		
		<g
   id="g3537">
			<g
   id="g3533"
   transform="translate(-39.655618,-12.861282)">
				<path
   fill="#414042"
   d="m 132.9,403 c 0,0 24.7,-2.6 30.4,-1.4 5.8,1.2 28.9,24 30.2,25.7 4,5 7.8,20.4 13.1,27.1 0,0 -6.3,3.7 -13.2,-2.4 -6.1,-5.5 -10.7,-18 -10.7,-18 0,0 -17.1,-11.1 -19.8,-10.6 -2.8,0.6 -15,2.6 -17.2,4.1 0,0 2.6,6.3 8.5,11.9 5.9,5.6 15,8.9 9.8,19.1 0,0 -17.4,-8.1 -23,-11.5 -5.6,-3.3 -17.8,-18.5 -17.8,-18.5 L 82,408 102.7,380.4 Z"
   id="path3529"
   style="fill:#000000" />
				<path
   fill="#414042"
   d="m 162.5,424.7 c 2.5,-0.5 19.1,10.3 19.1,10.3 0,0 1.4,3.8 3.6,8 l 2.1,8.6 c 0,0 -10.3,1.1 -13.7,-10.2 -0.7,-2.3 -1.3,-4.6 -1.9,-6.8 V 445 c 0,0 -7,-0.9 -9.8,-7.9 0,0 -0.6,-3.1 -0.6,-6.9 0,0 -1,2.6 -1,6.2 -2.8,-1.3 -6.5,-4 -7.4,-10 3.8,-0.6 8.1,-1.4 9.6,-1.7 z"
   id="path3531"
   style="fill:#000000" />
			</g>
			
		</g>
		
		
	</g></g></g><g
         id="g3966"
         transform="matrix(2.9124329,0,0,2.9124329,-2717.5643,-253.80564)">
	
	<g
   id="g3964"
   transform="matrix(-0.87810588,0,0,0.91356945,1173.0096,-483.51408)">
		
		
		
		<g
   id="g3938">
			<g
   id="g3934">
				<path
   fill="#414042"
   d="m 132.9,403 c 0,0 24.7,-2.6 30.4,-1.4 5.8,1.2 28.9,24 30.2,25.7 4,5 7.8,20.4 13.1,27.1 0,0 -6.3,3.7 -13.2,-2.4 -6.1,-5.5 -10.7,-18 -10.7,-18 0,0 -17.1,-11.1 -19.8,-10.6 -2.8,0.6 -15,2.6 -17.2,4.1 0,0 2.6,6.3 8.5,11.9 5.9,5.6 15,8.9 9.8,19.1 0,0 -17.4,-8.1 -23,-11.5 -5.6,-3.3 -17.8,-18.5 -17.8,-18.5 L 82,408 102.7,380.4 Z"
   id="path3930"
   style="fill:#000000" />
				<path
   fill="#414042"
   d="m 162.5,424.7 c 2.5,-0.5 19.1,10.3 19.1,10.3 0,0 1.4,3.8 3.6,8 l 2.1,8.6 c 0,0 -10.3,1.1 -13.7,-10.2 -0.7,-2.3 -1.3,-4.6 -1.9,-6.8 V 445 c 0,0 -7,-0.9 -9.8,-7.9 0,0 -0.6,-3.1 -0.6,-6.9 0,0 -1,2.6 -1,6.2 -2.8,-1.3 -6.5,-4 -7.4,-10 3.8,-0.6 8.1,-1.4 9.6,-1.7 z"
   id="path3932"
   style="fill:#000000" />
			</g>
			
		</g>
		
		
	</g>
</g><path
         style="fill:#ffffff;stroke:#ff0000;stroke-width:45.75648628;paint-order:markers fill stroke;stroke-dasharray:none"
         d="m 184.48968,-682.40179 278.81727,278.81726"
         id="path1346" /></g></g></svg>
